<?xml version="1.0" encoding="UTF-8"?>
<svg id="_圖層_2" data-name="圖層 2" xmlns="http://www.w3.org/2000/svg" width="838.35" height="143.5" xmlns:xlink="http://www.w3.org/1999/xlink" viewBox="0 0 838.35 143.5">
  <defs>
    <filter id="drop-shadow-2" filterUnits="userSpaceOnUse">
      <feOffset dx="0" dy="0"/>
      <feGaussianBlur result="blur" stdDeviation="7"/>
      <feFlood flood-color="#000" flood-opacity=".75"/>
      <feComposite in2="blur" operator="in"/>
      <feComposite in="SourceGraphic"/>
    </filter>
  </defs>
  <g id="_圖層_1-2" data-name="圖層 1">
    <g>
      <g>
        <path d="m175.4,103.7h9.23l1.18,4.73c.26,1.5.92,2.25,1.97,2.25h.22v7.65h-4.73c-2.81,0-4.61-1.5-5.4-4.5l-2.48-10.13Zm4.33,16.43h9l-2.76,13.39c-.71,3.11-2.44,4.67-5.18,4.67h-5.18v-7.93h2.25c.3,0,.56-.56.79-1.69l1.07-8.44Zm-3.66-32.86h9.23l1.18,4.95c.26,1.5.94,2.25,2.03,2.25h.45v7.71h-4.95c-2.85,0-4.65-1.5-5.4-4.5l-2.53-10.41Zm49.74,28.13v16.04h2.25v7.2h-40.96v-7.2h2.93v-16.04h35.79Zm-35.06-28.58h34.83v21.61c0,3.45-1.35,5.18-4.05,5.18h-30.78v-26.78Zm6.7,44.62h2.76v-9.06h-2.76v9.06Zm12.49-34.21h3.32l1.18,1.35c.26.26.75.39,1.46.39h1.41v-5.4h-18.29v5.63c1.12,0,1.93-.36,2.42-1.07l2.53-3.66h7.43l-1.46,2.76Zm6.64,9.68c.49,0,.73-.6.73-1.8h-4.73c-1.24,0-2.29-.66-3.15-1.97l-1.41-2.59-1.18,2.08c-.94,1.8-2.57,2.7-4.9,2.7h-2.93v1.58h17.56Zm-9.9,24.53h2.48v-9.06h-2.48v9.06Zm9.06,0h2.64v-9.06h-2.64v9.06Z" style="fill: #d3ecfa;"/>
        <path d="m253.78,86.37h11.25v2.48h20.26v9.28h-9.06v-1.63h-34.38v1.63h-9.06v-9.28h20.99v-2.48Zm30.1,12.6v7.65h-34.27l-3.49,3.66h27.01c1.2,0,1.8-.54,1.8-1.63v-.84h8.95v4.28c0,1.2-.64,2.4-1.91,3.6-1.58,1.46-3.49,2.19-5.74,2.19h-12.38v2.7h18.74v7.43h-18.74v2.7h20.99v7.71h-51.82v-7.71h20.76v-2.7h-18.91v-7.43h18.91v-2.7h-20.09v-5.57c0-.34.36-.81,1.07-1.41l4.22-4.28h-4.78v-7.65h49.69Z" style="fill: #d3ecfa;"/>
        <path d="m295.14,86.6h9.06l-.56,1.86h38.83v6.98h-41.02l-.39,1.29h39.16v6.53h-45.24v-2.64h-4.56v-7.43h1.63c.49,0,.92-.37,1.29-1.13l1.8-5.46Zm-3.54,18.29h49.24v25.38c0,1.09.62,1.63,1.86,1.63h.22v7.2h-5.18c-4.09,0-6.13-2.12-6.13-6.36v-20.88h-40.01v-6.98Zm6.25,22.06h9.06l-2.81,8.67c-.75,2.03-2.51,3.04-5.29,3.04h-6.53v-7.2h3.54c.37,0,.67-.26.9-.79l1.12-3.71Zm-3.09-13.34h9l1.63,4.95h1.91v-6.02h9.06v6.02h2.08l1.97-4.95h8.95l-1.86,4.95h3.49v7.2h-14.63v12.89h-9.06v-12.89h-14.8v-7.2h3.94l-1.69-4.95Zm22,13.34h9.06l.96,3.71c.11.52.3.79.56.79h3.43v7.2h-6.98c-2.1,0-3.49-.96-4.16-2.87l-2.87-8.83Z" style="fill: #d3ecfa;"/>
        <path d="m370.31,87.05v15.59h.73v9.68h-1.18v23.13c0,2.44-1.33,3.66-4,3.66h-5.46v-6.13h1.63c.56,0,.84-.43.84-1.29v-.23h-6.47v7.2h-6.98v-26.33h-1.63v-9.68h1.41v-15.59h21.1Zm-15.92,23.24h10.13v-1.86h-10.13v1.86Zm1.07-7.65h1.86v-7.2h6.75v-1.86h-8.61v9.06Zm.96,15.7h6.47v-1.74h-6.47v1.74Zm0,7.43h6.47v-1.74h-6.47v1.74Zm5.8-23.13h1.86v-2.03h-1.86v2.03Zm9.9,15.02h27.52v8.38c0,2.63-1.11,3.96-3.32,4l-.51,2.48h4.28v5.91h-29.03v-5.91h4.73l-.51-2.48h-3.15v-12.38Zm27.97-7.2v5.85h-28.58v-5.85h28.58Zm-27.97-21.78h7.43v-1.86h5.68v1.86h1.74v-1.86h5.68v1.86h7.43v15.98c0,3.15-1.37,4.73-4.11,4.73h-23.86v-20.71Zm5.63,8.27h1.8v-1.97h-1.8v1.97Zm1.8,6.13v-1.86h-1.8v1.86h1.8Zm12.38,21.61c.49,0,.73-.09.73-.28v-1.35h-13.56v1.63h12.83Zm-8.5,7.82h4.5l.51-2.48h-5.46l.45,2.48Zm1.8-37.53v1.97h1.74v-1.97h-1.74Zm1.74,8.1v-1.86h-1.74v1.86h1.74Zm5.68-8.1v1.97h1.74v-1.97h-1.74Zm.45,8.1c.86,0,1.29-.54,1.29-1.63v-.23h-1.74v1.86h.45Z" style="fill: #d3ecfa;"/>
        <path d="m423.49,92v7.93h-2.98v2.93h2.98v8.5h-2.98v19.86c0,2.29-.75,4.22-2.25,5.8-1.16,1.39-2.89,2.08-5.18,2.08h-5.35v-7.43h2.25c1.2,0,1.8-1.29,1.8-3.88v-1.91c-.71,1.13-1.46,1.69-2.25,1.69h-4.28v-7.6c1.09,0,1.89-.73,2.42-2.19l4.11-10.35v-7.48h-5.46v-7.93h5.46v-4.95h8.72v4.95h2.98Zm6.7-.23v-5.18h8.83v44.62c0,2.29-.77,4.22-2.31,5.8-1.2,1.39-2.91,2.08-5.12,2.08h-8.61v-7.03h5.46c1.16,0,1.74-1.11,1.74-3.32v-.73h-6.7v-8.27h6.7v-6.36h-5.57v-7.82h5.57v-5.85h-5.79v-7.93h5.79Zm11.93-5.18h9v4.95h6.81v8.38h-6.81v5.8h5.85v8.38h-5.85v6.7h7.03v8.61h-7.03v9.23h-9v-52.05Z" style="fill: #d3ecfa;"/>
        <path d="m472.1,86.6h9.68v4.11h7.82v3.54c.3-.23.56-.56.79-1.01l2.87-6.64h9.9l-1.86,3.88h14.01v8.27h-18.01l-.67,1.46c-.56,1.31-1.46,1.97-2.7,1.97h-6.81v-3.66h-10.8l-.34,4.56h12.77v28.81c0,4.65-2.64,6.98-7.93,6.98h-4.22v-7.65h1.29c1.35,0,2.03-.6,2.03-1.8v-18.51h-4.39l-1.24,20.82c-.15,2.44-.88,4.24-2.2,5.4-1.46,1.31-3.19,1.97-5.18,1.97h-3.43v-8.38h.67c1.12,0,1.71-.96,1.74-2.87l1.69-29.32h-3.88v-7.82h8.38v-4.11Zm32.58,13.56h10.41l-8.95,18.85,4.84,9.73c.6,1.31,1.29,1.97,2.08,1.97h2.25v7.93h-8.16c-1.16,0-2.18-.88-3.04-2.64l-2.98-6.41-2.76,5.85c-.98,2.14-2.03,3.21-3.15,3.21h-5.8v-7.93h1.58c.6,0,1.18-.88,1.74-2.65l3.66-8.5-6.81-14.46h9.68l1.8,3.54,3.6-8.5Z" style="fill: #d3ecfa;"/>
        <path d="m573.16,104.66v4.95h-52.05v-4.95h52.05Zm-50.19,6.02h47.94v12.38c0,2.44-2.19,3.66-6.58,3.66h-12.77v1.07h19.13v4.73h-19.13v1.18h20.65v4.95h-50.64v-4.95h20.71v-1.18h-19.13v-4.73h19.13v-1.07h-19.3v-16.04Zm0-23.41h48.33v12.66c0,2.51-2.1,3.77-6.3,3.77h-42.03v-16.43Zm8.55,6.13h31.29v-1.18h-31.29v1.18Zm29.26,5.35c1.27,0,1.95-.36,2.03-1.07h-31.29v1.07h29.26Zm-29.04,17.84h10.52v-1.18h-10.52v1.18Zm10.52,5.4v-1.18h-10.52v1.18h10.52Zm9.28-6.58v1.18h10.52v-1.18h-10.52Zm8.27,6.58c1.5,0,2.25-.39,2.25-1.18h-10.52v1.18h8.27Z" style="fill: #d3ecfa;"/>
        <path d="m580.6,79.81h27.61l-.85,15.84c-.35,3.99-2.78,5.98-7.3,5.98h-20.83v-7.62h4.8l-2.17-4.67h10.58l2.1,4.67h1.25c1.18,0,1.82-.59,1.91-1.77v-4.27h-17.09v-8.15Zm18.08,33.13h38.71v10.58c0,3.55-2.43,5.52-7.3,5.92l-.92,2.5h10.84v8.15h-60.8v-8.15h8.94l-.79-2.43h-5.98v-16.56h17.29Zm39.96-9.66v7.56h-58.63v-7.56h58.63Zm-39.96,19.46h26.03c1.58,0,2.37-.55,2.37-1.64v-1.25h-35.43v2.89h7.03Zm1.38,9.2h17.22l.92-2.43h-19l.85,2.43Zm39.17-52.12v8.15h-18.21l.79,4.54c.09,1.01.7,1.51,1.84,1.51h.92l2.76-4.4h10.52l-2.76,4.4h4.93v7.62h-21.89c-3.9,0-5.98-1.99-6.24-5.98l-1.38-15.84h28.72Z" style="fill: #ffce00;"/>
        <path d="m668.3,95.65v8.41h-7.16v2.1h6.84v8.41h-6.84v16.83h7.43v8.68h-23.73v-8.68h7.89v-16.83h-7.62v-8.41h7.62v-2.1h-7.36v-8.41h22.94Zm-18.93-15.84h14.2l2.3,4.54c.44,1.01.88,1.51,1.31,1.51h2.17v8.74h-5.52c-1.01,0-1.84-.5-2.5-1.51l-3.29-4.86h-3.16l-2.89,4.73c-.61.88-1.31,1.31-2.1,1.31h-4.8v-8.68h1.38c.35,0,.68-.48.99-1.45l1.91-4.34Zm-4.01,37.14h5.52v3.42c0,1.01.37,1.51,1.12,1.51v7.62h-3.42c-2.15,0-3.22-1.49-3.22-4.47v-8.08Zm17.94,0h5.78v8.41c0,2.94-1.14,4.4-3.42,4.4h-3.75v-7.62h.26c.74,0,1.12-.5,1.12-1.51v-3.68Zm14.92-37.66h9.2l-1.05,2.63h17.88v5.52l-3.29,15.84h4.4v8.41h-13.67v14.46h8.87l1.71,4.6c.17.61.48.92.92.92h1.91v8.15h-5.52c-2.46,0-4.08-1.14-4.86-3.42l-3.02-9.46v8.35c0,3.02-1.84,4.54-5.52,4.54h-7.16v-4.86l-.13.53c-.66,2.15-2.26,3.22-4.8,3.22h-4.73v-7.3h1.84c.26,0,.48-.31.66-.92l.85-4.34h8.68l-1.58,6.05h1.05c1.09,0,1.64-.55,1.64-1.64v-18.86h-13.15v-8.41h22.61l.46-2.37h-20.18v-7.69l5.98-13.93Zm-8.87,33.65h8.41l1.12,3.29c.13.48.37.72.72.72h1.78v7.03h-5c-2.1,0-3.48-.9-4.14-2.69l-2.89-8.35Zm24.65-19.72l.59-3.09h-11.7l-1.38,3.09h12.49Zm2.69,19.72h8.94l-2.56,8.41c-.66,1.93-2.28,2.89-4.86,2.89h-5.26v-7.3h2.37c.22,0,.39-.24.53-.72l.85-3.29Z" style="fill: #ffce00;"/>
        <path d="m769.09,80.07v9.79h-22.81v25.7h24.19v10.58h-24.19v14.2h-11.3v-14.2h-23.99v-10.58h23.99v-25.7h-22.35v-9.79h56.46Zm-55.21,11.63h11.31l1.97,10.32c.26,1.36.68,2.04,1.25,2.04h3.15v9.66h-7.43c-3.02,0-5.02-1.77-5.98-5.32l-4.27-16.69Zm42.66,0h11.3l-3.62,16.3c-.88,3.81-3.09,5.72-6.64,5.72h-7.69v-9.66h3.75c.48,0,.88-.72,1.18-2.17l1.71-10.19Z" style="fill: #ffce00;"/>
        <path d="m792.18,79.55h13.67l-14.46,17.35h30.5c.88,0,1.32-.35,1.32-1.05l-3.94-9.4h11.83l3.35,8.61c.17.22.35.83.53,1.84v5.19c0,3.37-2.26,5.06-6.77,5.06h-50.48v-7.89l14.46-19.72Zm-13.21,31.29h54.49v21.56c0,4.95-2.89,7.43-8.68,7.43h-45.81v-28.99Zm39.96,18.93c1.97,0,2.96-.79,2.96-2.37v-6.51h-31.35v8.87h28.39Z" style="fill: #ffce00;"/>
      </g>
      <g>
        <path d="m238.97,13.61h58.58v52.83c0,4.8-2.62,7.2-7.86,7.2h-50.72V13.61Zm45.44,50.19c1.76,0,2.64-.79,2.64-2.38V23.45h-37.58v40.35h34.93Zm-30.64-36.19h29.26v25.95c0,4.58-2.44,6.87-7.33,6.87h-21.93V27.61Zm16.91,23.58c1.58,0,2.38-.79,2.38-2.38v-11.89h-9.31v14.26h6.93Z" style="fill: #99c349;"/>
        <path d="m305.73,15.26h9.84v37.18c0,1.45.59,2.18,1.78,2.18h2.11V13.35h10.37v60.56h-10.37v-10.1h-7.92c-3.87,0-5.81-1.85-5.81-5.55V15.26Zm30.18-1.92h11.29l-.86,3.5h19.94v9.77h-22.45l-.13.46c-.92,3.21-3.19,4.82-6.8,4.82h-5.81v-9.25h1.92c.44,0,.84-.55,1.19-1.65l1.72-7.66Zm17.63,15.39h12.48l-12.35,23.05,6.41,10.5c.88,1.54,1.89,2.31,3.04,2.31h3.17v9.31h-10.1c-1.67,0-3.08-1.04-4.23-3.1l-4.36-7.66-3.7,7c-1.23,2.51-2.6,3.76-4.09,3.76h-8.19v-9.84h3.24c.84,0,1.63-1.01,2.38-3.04l4.36-8.58-10.24-18.16h11.69l4.23,6.93,6.27-12.48Z" style="fill: #99c349;"/>
        <path d="m384.19,12.82h9.84v2.18h38.24v6.8h-38.24v2.11h39.36v11.89h-3.76v3.76h-31.43v.26c0,1.01.81,1.52,2.44,1.52h31.63v6.67h-34.08c-.57,0-1.08-.02-1.52-.07l-.66,1.85h12.28v7.92l-5.55,6.87,2.71,1.45c1.19.62,2.55.92,4.09.92h24.37v6.93h-29.92c-1.41,0-2.62-.37-3.63-1.12l-2.77-1.78-.59.79c-1.15,1.41-2.51,2.11-4.09,2.11h-9.44v-6.93h5.81c.62,0,1.08-.15,1.39-.46l-7.73-5.02v4.49c0,5.77-2.91,8.65-8.72,8.65h-1.85v-7.66h1.06c.53,0,.79-.51.79-1.52V23.91h9.97v-11.09Zm-1.25,47.81h11.89l.79.4,3.96-4.29h-5.68c-.88,1.94-2.69,2.91-5.42,2.91h-4.29v-6.67h1.39c.44,0,.79-.33,1.06-.99l1.58-4.82h4.29c-2.86-1.01-4.29-2.95-4.29-5.81v-1.78h-4.29v-6.67h4.29v-1.78h-5.28v29.52Zm40.35-27.74v-1.78h-25.09v1.78h25.09Zm-4.75,16.91h11.09v7.92c0,.92.55,1.39,1.65,1.39h1.52v6.6h-5.81c-3.7,0-5.55-1.85-5.55-5.55v-4.29h-3.17v4.75c0,3.57-1.76,5.35-5.28,5.35h-4.95v-5.81h1.06c1.06,0,1.58-.46,1.58-1.39v-8.98h7.86Z" style="fill: #99c349;"/>
        <path d="m461.92,13.61v9.05h-5.02v15.78h4.49v9.25h-4.49v16.11h4.49v9.25h-20.14v-9.25h5.28v-16.11h-5.28v-9.25h5.28v-15.78h-5.28v-9.05h20.67Zm38.77-.26v30.18c0,3.83-2.2,5.75-6.6,5.75h-6.54v3.43h12.88v8.72h-12.88v3.5h14v8.72h-38.83v-8.72h14.99v-3.5h-13.74v-8.72h13.74v-3.43h-13.41V13.35h36.39Zm-27.14,14h4.16v-5.55h-4.16v5.55Zm4.16,13.47v-5.28h-4.16v5.28h4.16Zm9.84-19.02v5.55h3.9v-5.55h-3.9Zm3.9,13.74h-3.9v5.28h1.78c1.41,0,2.11-.53,2.11-1.58v-3.7Z" style="fill: #99c349;"/>
        <path d="m526.37,12.82h10.24v8.19h4.03v-8.19h10.24v8.19h2.38l2.44-5.75h10.3l-2.44,5.75h5.61v8.45h-10.76l-.99,3.7h10.1v8.45h-23.44v2.11h21.33v7.73h-21.33v2.11h25.09v8.45h-25.09v12.42h-10.9v-12.42h-24.83v-8.45h24.83v-2.11h-21.07v-7.73h21.07v-2.11h-23.18v-8.45h10.17l-.92-3.7h-10.9v-8.45h5.48l-1.45-5.75h10.24l1.52,5.75h2.25v-8.19Zm-6.67,50.72h12.22l-4.89,7.99c-1.01,1.76-2.73,2.64-5.15,2.64h-12.75v-7.46h7.92c.62,0,1.06-.24,1.32-.73l1.32-2.44Zm11.29-30.38h15.58l.99-3.7h-17.5l.92,3.7Zm14.07,30.38h12.22l1.39,2.44c.31.48.9.73,1.78.73h7.86v7.46h-13.93c-1.81,0-3.32-.88-4.56-2.64l-4.75-7.99Z" style="fill: #99c349;"/>
        <path d="m634.15,17.37v9.25h-24.9v3.9h3.57l1.78-3.43h12.88l-1.65,3.43h10.43v9.84h-38.96l-1.25,2.64h37.84v22.45c0,5.99-2.99,8.98-8.98,8.98h-43.65v-18.29h-5.02v-10.24h3.5c1.36,0,2.38-.77,3.04-2.31l1.39-3.24h-7.66v-9.84h21.46v-3.9h-19.81v-9.25h19.81v-4.82h11.29v4.82h24.9Zm-41.54,37.44h29.92v-2.84h-29.92v2.84Zm27.8,10.63c1.41,0,2.11-.64,2.11-1.92v-.46h-29.92v2.38h27.8Z" style="fill: #99c349;"/>
      </g>
      <g>
        <path d="m56.99,111.5c1.65-2.32,3.03-4.89,4.98-6.91,6.99-7.19,14.17-14.2,21.31-21.25.62-.61,1.46-1.01,2.19-1.51-.33-.1-.66-.19-.98-.29-2.2-5.47-4.98-10.78-6.52-16.43C70.11,36.25,89.33,6.12,118.7.85c27.98-5.02,54.4,12.66,60.51,40.49.41,1.86.73,3.74,1.09,5.61v10.12c-.16.6-.4,1.2-.48,1.81-4.06,30.89-34.49,51.49-64.57,43.42-5.73-1.54-11.11-4.35-17.03-6.72-.07.06-.65.59-1.21,1.15-7.11,7.08-14.15,14.23-21.38,21.19-2.08,2-4.71,3.44-7.09,5.14h-3.85c-3.87-1.26-6.46-3.82-7.71-7.71,0-1.28,0-2.57,0-3.85ZM128.21,7.24c-24.82.07-44.83,20.18-44.74,44.95.1,24.68,20.22,44.72,44.82,44.64,24.8-.08,44.9-20.28,44.76-44.97-.14-24.69-20.23-44.68-44.85-44.62Zm-38.81,79.73c-8.14,8.25-16.19,16.41-24.22,24.57-1.11,1.13-1.39,2.41-.15,3.58,1.26,1.19,2.51.72,3.6-.36,3.7-3.66,7.42-7.32,11.09-11.02,4.39-4.42,8.75-8.88,13.23-13.44-1.01-.95-2.05-1.93-3.54-3.34Z" style="fill: #99c349;"/>
        <path d="m88.67,52.06c-.02-21.93,17.75-39.74,39.62-39.7,21.9.04,39.62,17.85,39.56,39.76-.06,21.84-17.67,39.48-39.5,39.57-21.85.09-39.66-17.69-39.68-39.63Zm7.21,0c.02,17.93,14.6,32.48,32.47,32.42,17.82-.07,32.22-14.51,32.27-32.36.05-17.95-14.41-32.5-32.33-32.54-17.88-.04-32.43,14.54-32.41,32.47Z" style="fill: #d3ecfa;"/>
      </g>
      <g style="filter: url(#drop-shadow-2);">
        <path d="m72.3,35.84v8.96h-16.67l9.38,19.79c.59,1.39,1.28,2.08,2.08,2.08h5v8.18h-11.04c-1.18,0-2.17-.92-2.97-2.76l-9.53-21.98-9.01,21.15c-1.08,2.4-2.33,3.59-3.75,3.59h-11.67v-8.18h5.89c1.04,0,2.13-1.48,3.28-4.43l7.19-17.45h-15.73v-8.96h18.59v-8.75h9.53v8.75h19.43Z" style="fill: #ffce00;"/>
        <path d="m79.93,30.27h9.53l-2.19,35.83c-.14,2.33-.85,4.06-2.14,5.21-1.42,1.25-3.09,1.88-5,1.88h-3.8v-8.59h.68c.87,0,1.32-.89,1.35-2.66l1.56-31.67Zm15.21-3.18h9.53v39.58c0,2.57-.8,4.69-2.4,6.35-1.35,1.49-3.26,2.24-5.73,2.24h-6.46v-8.18h2.97c1.39,0,2.08-1.39,2.08-4.17V27.09Zm13.75,3.18h9.53l2.29,31.46c.31,1.81,1.08,2.71,2.29,2.71h.68v8.54h-6.04c-3.79,0-5.94-2.43-6.46-7.29l-2.29-35.42Z" style="fill: #ffce00;"/>
        <path d="m134.01,26.68h8.54l-3.75,12.14v36.67h-7.97v-29.79h-2.71v-7.92h2.08c.52,0,.96-.62,1.3-1.87l2.5-9.22Zm13.54,40.83h9.53c-1.35,3.44-2.66,5.59-3.91,6.46-1.25,1.01-2.73,1.51-4.43,1.51h-8.49v-5.89h5.21c.83,0,1.53-.69,2.08-2.08Zm.16-40.83h8.18v2.14h19.53v6.46h-19.53v1.67h19.11v24.11c0,3.65-1.93,5.47-5.78,5.47h-27.76v-29.58h6.25v-10.26Zm1.72,18.12h17.71v-1.41h-17.71v1.41Zm0,7.55h17.71v-1.67h-17.71v1.67Zm16.04,7.66c1.08,0,1.63-.62,1.67-1.88h-17.71v1.88h16.04Zm-7.29,7.5h9.74l.78,1.3c.42.52,1.13.78,2.13.78h5.68v5.89h-9.58c-3.12,0-5.35-1.27-6.67-3.8l-2.08-4.17Z" style="fill: #ffce00;"/>
        <path d="m197.62,27.51v7.76h-5.37l-1.51,5.78h6.3v29.01c0,3.33-1.67,5-5,5h-9.63v-19.58h-2.71v-7.76h.62c1.04,0,1.79-1.25,2.24-3.75l1.61-8.7h-3.85v-7.76h17.29Zm-8.33,40.47c.87,0,1.3-.49,1.3-1.46v-18.33h-1.72v19.79h.42Zm38.38-25.83v6.04h-21.67v3.7h4.58l1.56,5.62c.17.69.47,1.04.89,1.04h.42v-9.17h6.88v8.96h.42c.42,0,.75-.35.99-1.04l1.35-5.42h5.78l-2.14,8.8c-.56,2.08-1.93,3.12-4.11,3.12h-.36l2.71,4.38c.55.52,1.23.78,2.03.78h1.3v6.09h-4.38c-1.84,0-3.16-.61-3.96-1.82l-2.92-4.84-3.28,4.9c-.66,1.18-1.72,1.77-3.18,1.77h-5v-2.92c-.69,1.91-2.22,2.88-4.58,2.92h-3.38v-6.09h.83c.45,0,.68-.33.68-.99v-25.83h28.54Zm-28.33-13.75h7.24v5.57h3.38v-6.88h7.66v6.88h1.51c1.08,0,1.61-.4,1.61-1.2v-4.17h7.34v7.24c0,2.78-1.75,4.17-5.26,4.17h-23.49v-11.61Zm6.67,40.57h1.41c.76,0,1.35-.26,1.77-.78l2.4-4.17h-.62c-1.77,0-2.95-.99-3.54-2.97l-1.41-5.26v13.18Z" style="fill: #ffce00;"/>
      </g>
    </g>
  </g>
</svg>