<svg id="圖層_1" data-name="圖層 1" xmlns="http://www.w3.org/2000/svg" viewBox="0 0 551.67 53.86"><defs><style>.cls-1,.cls-4{fill:#fff;}.cls-2{fill:#4a82bc;}.cls-2,.cls-3,.cls-4{fill-rule:evenodd;}.cls-3{fill:#98cb60;}.cls-5{font-size:17.69px;font-family:Noto Sans CJK TC;}.cls-6{font-size:13.27px;}.cls-7{fill:#297550;}</style></defs><title>logoandname</title><circle class="cls-1" cx="23.06" cy="23.06" r="23.06"/><path class="cls-2" d="M1548.86,89.59l-19.29,8.09a21,21,0,0,1-1.61-7.16c0-.31,0-0.62,0-0.93a20.92,20.92,0,1,1,41.85,0,22.42,22.42,0,0,1-.58,4.74Z" transform="translate(-1525.81 -66.54)"/><path class="cls-3" d="M1552.12,86.6l7.44,9.65,9.65-2a21,21,0,0,1-40.49,1.47l17,0.47Z" transform="translate(-1525.81 -66.54)"/><path class="cls-4" d="M1528,90.63l7.13,0,8.27-12.4a1.09,1.09,0,0,1,1.27-.42l2.17,2.31-8.61,12.05-10.17,0Z" transform="translate(-1525.81 -66.54)"/><polygon class="cls-3" points="2.68 28.22 16.48 28.22 26.75 12.96 37.34 28.22 43.15 28.22 42.84 29.04 36.09 29.04 26.75 15.56 17.34 29.25 2.94 29.15 2.68 28.22"/><polygon class="cls-4" points="3.14 29.8 2.92 29.15 17.3 29.08 26.78 15.51 36.15 29.06 43.07 29.06 42.48 30.64 32.98 30.64 26.4 21.34 20.62 30.43 3.35 30.44 3.14 29.8"/><path class="cls-4" d="M1528.49,94.76l-0.14-.76-0.09-.86,10.8,0,12.39-18.6a1.2,1.2,0,0,1,1.07-.37,1.55,1.55,0,0,1,1,.55l12.87,18.6h3.07l-0.33,1.4-6,0-10.68-15-10.12,15.15Z" transform="translate(-1525.81 -66.54)"/><text class="cls-5" transform="translate(51.49 22.26)">行政院環境保護署<tspan class="cls-6"><tspan x="0" y="17.69">資源回收管理基金管理會</tspan></tspan></text><path class="cls-7" d="M1761,77.88a27.73,27.73,0,0,1-3.29,5.7,33.77,33.77,0,0,0,4.48.35A15.31,15.31,0,0,0,1759.5,88c-3.85-.45-6.82-1.47-9-3.25-1.4,1.36-4.16,2.55-9.45,3.11h17V102.2h-4.2c2.87,1.15,5.84,2.48,7.7,3.43l-4.55,2.66a64.81,64.81,0,0,0-8.71-4.34l2.24-1.75h-9.27l3.18,1.43a42.7,42.7,0,0,1-11.09,4.79,37.86,37.86,0,0,0-3.78-3.71,40.39,40.39,0,0,0,8.89-2.52h-4.3V87.85h6.12a11.47,11.47,0,0,0-1.22-2.1h-9.45V81.94h10.88v2c5.84-.49,6.72-1.64,6.72-2.69V80.65H1746a16.42,16.42,0,0,1-2.34,2.69,29.31,29.31,0,0,0-3.74-2.55,12.78,12.78,0,0,0,4.13-6l4.41,1c-0.14.42-.31,0.84-0.49,1.26h8.89l0.73-.21Zm-21.34,2.34h-9.31V76.59h9.31v3.64Zm13.22,10.56h-13.85v1h13.85v-1Zm-13.85,4.72h13.85v-1h-13.85v1Zm0,3.78h13.85v-1h-13.85v1Zm12.77-18.65v0.73a11,11,0,0,0,5.35,2.13l-3.43-1.29c0.28-.45.63-1,0.94-1.57h-2.87Z" transform="translate(-1525.81 -66.54)"/><path class="cls-7" d="M1769.72,91.88c-1.22-.94-3.85-2.48-5.6-3.5l2.9-3.67c1.68,0.84,4.37,2.2,5.74,3.08Zm3.53,4.72c-1.26,3.81-2.69,7.7-4.2,11.26l-4.65-2.69a103.07,103.07,0,0,0,4.69-11.33Zm-1.82-14.06c-1.22-1-3.92-2.55-5.67-3.64l2.94-3.64c1.68,0.87,4.44,2.31,5.81,3.22Zm19,14.38v6.72c0,2.06-.28,3.25-1.68,3.92a11.39,11.39,0,0,1-5.14.7,20.31,20.31,0,0,0-1-3.78c-0.45.77-.87,1.47-1.26,2.06a29.84,29.84,0,0,0-4-2.41,25.8,25.8,0,0,0,3.29-6.16l4.48,1.29a38.06,38.06,0,0,1-2.27,4.65c0.91,0,1.89,0,2.2,0s0.52-.1.52-0.45V96.91h-5.14v-13h4.34c0.28-.8.56-1.68,0.73-2.41h-5.84V86.7c0,6.3-.66,15.88-4.86,21.69a21.3,21.3,0,0,0-4.3-2.69c3.92-5.35,4.23-13.36,4.23-19V76.94H1797v4.55h-8.5l2.87,0.49c-0.42.66-.87,1.33-1.29,1.92h6.12v13h-5.81Zm1.12-9.45h-6.61v1.26h6.61V87.47Zm-6.61,5.88h6.61V92.05h-6.61v1.29ZM1795,97.51c1,2.1,2.41,5,3,6.72l-4.69,2a70.36,70.36,0,0,0-2.76-7Z" transform="translate(-1525.81 -66.54)"/><path class="cls-7" d="M1831.07,76.1v32.18h-5.56v-1.89h-19.63v1.89h-5.28V76.1h30.47Zm-5.56,25.57V81.31h-19.63v20.36h19.63Z" transform="translate(-1525.81 -66.54)"/><path class="cls-7" d="M1865.7,86.18A41.55,41.55,0,0,1,1861.54,99a19.22,19.22,0,0,0,6.19,4.9,18.2,18.2,0,0,0-3.43,4.2,22.54,22.54,0,0,1-5.74-4.86,22.6,22.6,0,0,1-6.37,5.18,25.47,25.47,0,0,0-3.32-4.16,18.58,18.58,0,0,0,6.75-5.28,37.69,37.69,0,0,1-2.87-6.47,18,18,0,0,1-1.19,1.54,28,28,0,0,0-2.73-3.6v17.84h-5V99.68c-5.11,1.75-6.33,2.45-7.21,3.15a16.81,16.81,0,0,0-1.85-4.65,2.74,2.74,0,0,0,1.29-2.59V78.76h5V95.55l2.76-.77V75.58h5v13c2.45-3.36,3.85-8.36,4.55-13.61l5.25,0.84a55,55,0,0,1-1.15,5.53h10v4.79h-1.75Zm-9.69,0c-0.14.38-.32,0.8-0.45,1.19a35.51,35.51,0,0,0,2.8,7,33.44,33.44,0,0,0,2.31-8.22H1856Z" transform="translate(-1525.81 -66.54)"/><path class="cls-7" d="M1902.08,80.75h-5.21a17.49,17.49,0,0,1,2.13,1.92l-2.38,2.1h4.58v6.33h-4.41v6.79h-16.86V99h18.75v9.34h-5.07v-0.84h-13.68v0.84h-5.18V91.11h-4.44V84.78h1.82a37.76,37.76,0,0,0-2.87-2.9,19.54,19.54,0,0,0,5-7.17l4.48,1.33-0.42.94h6.93v2.83a14,14,0,0,0,3.53-5.11l4.62,1.22c-0.14.35-.32,0.7-0.45,1h9.17v3.78Zm-25.89,0a32.12,32.12,0,0,1-3,4h6.09a23.24,23.24,0,0,0-2.8-2.76l1.36-1.22h-1.61ZM1896,88.52h-20.81V89.6H1896V88.52Zm-4.2,4.65h-11.89v1.15h11.89V93.17Zm-11.89,9.48v1.19h13.68v-1.19h-13.68Zm6.82-20.53c-0.59-.45-1.19-0.94-1.75-1.33h-3.81a13.22,13.22,0,0,1,1.57,1.54l-2.62,2.45h3.36c-0.28-.63-0.56-1.26-0.87-1.82Zm8.08,2.66a33.13,33.13,0,0,0-3.15-2.73l1.54-1.29h-2.59a18.46,18.46,0,0,1-2.41,2.69c-0.14-.14-0.32-0.32-0.52-0.49a14.75,14.75,0,0,1,.91,1.82h6.23Z" transform="translate(-1525.81 -66.54)"/><path class="cls-7" d="M1916.81,101.43c-4,1.36-8.29,2.76-11.79,3.88l-1.12-5.18c1.15-.28,2.52-0.66,4-1.08V91.56h-3.29V86.91h3.29V81.56h-3.6V76.87h12v4.69h-3.57v5.35h2.94v4.65h-2.94v6.05c1-.35,2.13-0.66,3.18-1Zm20.71,1.19v4.58H1915v-4.58h9.13V100.1h-6.82V95.55h6.82V93.17h-6.72V76.45h18.65V93.17h-6.72v2.38h7v4.55h-7v2.52h8.19ZM1922,82.82h2.62v-2.1H1922v2.1Zm0,6.09h2.62V86.77H1922V88.9Zm9.24-8.19h-2.38v2.1h2.38v-2.1Zm0,6.05h-2.38V88.9h2.38V86.77Z" transform="translate(-1525.81 -66.54)"/><path class="cls-7" d="M1970.93,77.88a27.72,27.72,0,0,1-3.29,5.7,33.77,33.77,0,0,0,4.48.35,15.31,15.31,0,0,0-2.73,4.06c-3.85-.45-6.82-1.47-9-3.25-1.4,1.36-4.16,2.55-9.45,3.11h17V102.2h-4.2c2.87,1.15,5.84,2.48,7.7,3.43l-4.55,2.66a64.81,64.81,0,0,0-8.71-4.34l2.24-1.75h-9.27l3.18,1.43a42.71,42.71,0,0,1-11.09,4.79,37.89,37.89,0,0,0-3.78-3.71,40.39,40.39,0,0,0,8.89-2.52h-4.3V87.85h6.12a11.45,11.45,0,0,0-1.22-2.1h-9.45V81.94h10.88v2c5.84-.49,6.72-1.64,6.72-2.69V80.65h-1.26a16.38,16.38,0,0,1-2.34,2.69,29.35,29.35,0,0,0-3.74-2.55,12.78,12.78,0,0,0,4.13-6l4.41,1c-0.14.42-.31,0.84-0.49,1.26h8.89l0.73-.21Zm-21.34,2.34h-9.31V76.59h9.31v3.64Zm13.22,10.56H1949v1h13.85v-1ZM1949,95.52h13.85v-1H1949v1Zm0,3.78h13.85v-1H1949v1Zm12.77-18.65v0.73a11,11,0,0,0,5.35,2.13l-3.43-1.29c0.28-.45.63-1,0.94-1.57h-2.87Z" transform="translate(-1525.81 -66.54)"/><path class="cls-7" d="M1987.37,84.74h-13v-4h5.18c-0.49-1.29-1.19-2.83-1.78-4.06l3.57-1.85a38.88,38.88,0,0,1,2.27,4.79l-1.92,1.12h5.67v4Zm-11.58,6.09V87h10.39v3.78h-10.39Zm0,1h10.49v3.78h-10.49V91.88ZM2004,76.73c-0.42,10-.32,25.78.56,26.17,0.18,0.07.32-2.27,0.42-4.37a25.49,25.49,0,0,0,2.55,4.23c-0.63,5.25-2.8,6.33-5.25,5.25-3.32-1.5-3.39-14-3.36-26.45h-3.39v8.68h2.69v4.69h-2.69v13.36h-4.72V94.92h-3.46V90.23h3.46V81.56h-2.94V76.73H2004Z" transform="translate(-1525.81 -66.54)"/><path class="cls-7" d="M2028.36,97v6.09c0,2.38-.45,3.67-2.24,4.44s-3.81.8-6.4,0.8a18.56,18.56,0,0,0-1.85-5c1.64,0.1,3.92.1,4.55,0.1s0.77-.14.77-0.52V97.4c-3.25.32-5.35,0.52-6.82,0.7l4.65,1.68a38,38,0,0,1-7.66,7.21,35.45,35.45,0,0,0-4.44-3.39,21.69,21.69,0,0,0,6.68-5.39,14.39,14.39,0,0,0-2.48.59,42.25,42.25,0,0,0-1.47-4.58,15.65,15.65,0,0,0,4.9-1.78,42.88,42.88,0,0,0,4.34-2.27c-4.41.35-5.56,0.52-6.44,0.87-0.25-.94-0.94-3.32-1.47-4.62a9.54,9.54,0,0,0,3-1.22,38.36,38.36,0,0,0,4.23-2.52c-2.83.42-5.7,0.77-8.43,1a16.38,16.38,0,0,0-1.43-4.3c8.22-.87,17-2.52,22.56-4.72l3.78,4a68.6,68.6,0,0,1-10,2.76l1.61,1a50.3,50.3,0,0,1-5.14,3.39l4.55-.17c1.26-.94,2.48-1.89,3.6-2.9l3.74,3.39a66.27,66.27,0,0,1-10.32,6.61l7.1-.49c-0.59-.66-1.15-1.36-1.68-2l4.2-2.13a81.56,81.56,0,0,1,6.72,8l-4.34,2.66a30.6,30.6,0,0,0-1.75-2.52Zm5.35,0.38a44.7,44.7,0,0,1,7.77,6.19l-4.55,3a44.05,44.05,0,0,0-7.42-6.51Z" transform="translate(-1525.81 -66.54)"/><path class="cls-7" d="M2072.47,103.21c0.56,0,.66-0.66.77-4.9a13.28,13.28,0,0,0,4.23,1.89c-0.42,5.81-1.54,7.45-4.48,7.45h-2.27c-3.6,0-4.41-1.47-4.41-5.74V92.4l-1.22.17c-0.28,7.1-1.15,12.56-6.68,15.88a13.14,13.14,0,0,0-3.08-4c4.2-2.38,4.76-6.09,5-11.19a9,9,0,0,0-1.75.52,48.83,48.83,0,0,0-1.71-4.86c0.94-.28,1.57-1,2.48-2.45a25.37,25.37,0,0,0,1.57-2.83h-3.6V82.85a63.51,63.51,0,0,1-4.2,6.61l2.48-1a27.73,27.73,0,0,1,2.45,7.1l-3.6,1.5a9.68,9.68,0,0,0-.28-1.54c-6.54,1.26-7.84,1.68-8.64,2.13a34.25,34.25,0,0,0-1.54-4.48c1-.28,1.71-1,2.83-2.34,0.35-.38.94-1.15,1.64-2.13a9.84,9.84,0,0,0-3.22.7,42.16,42.16,0,0,0-1.54-4.41,3.83,3.83,0,0,0,2-1.89,36.22,36.22,0,0,0,3.74-8.4l4.51,1.89a46.22,46.22,0,0,1-4.48,8.29l1.5-.1a47.63,47.63,0,0,0,2.66-5.35l3.71,2.34V78.9H2063a42.78,42.78,0,0,0,1.4-4.06l5.6,1.36c-0.35.91-.73,1.78-1.12,2.69h7.84v4.72h-10.18c-0.87,1.61-1.78,3.15-2.69,4.55l5.77-.49c-0.42-.73-0.84-1.47-1.26-2.13l4.09-1.82a40.41,40.41,0,0,1,4.69,8.85l-4.44,2.06a20.28,20.28,0,0,0-1-2.83l-0.56.07v10c0,1.19,0,1.33.52,1.33h0.87Zm-23.72-4.09a37,37,0,0,1-1.36,8.64,22.27,22.27,0,0,0-3.71-1.33,28.67,28.67,0,0,0,1.22-7.94Zm3.71-1a63.35,63.35,0,0,1,.91,7.14l-3.71,1A61.68,61.68,0,0,0,2049,99Zm0.66-6.16c-0.21-.59-0.45-1.15-0.66-1.71-0.56.7-1.08,1.4-1.68,2.1Zm3,5a45.41,45.41,0,0,1,1.61,5.39l-3.46,1.29a46.84,46.84,0,0,0-1.47-5.53Z" transform="translate(-1525.81 -66.54)"/><path class="cls-7" d="M1808.7,92.26a2.5,2.5,0,0,0,1.42.8l0,0c0.36,0.08.36,0.08,0.36,0.44q0,1.41,0,2.83a0.4,0.4,0,0,0,.47.47c1.12,0,2.24,0,3.36,0a0.48,0.48,0,0,0,.49-0.43c0-.48,0-1,0-1.48h-1.25l2.21-2.21L1818,95h-1.24c0,0.22,0,.42,0,0.62,0,0.47,0,.94,0,1.41a1.7,1.7,0,0,1-1.7,1.71c-1.57,0-3.14,0-4.72,0A1.72,1.72,0,0,1,1808.7,97q0-2.25,0-4.49V92.26Z" transform="translate(-1525.81 -66.54)"/><path class="cls-7" d="M1823,90.93a2.48,2.48,0,0,0-1.79-.83V89.85q0-1.46,0-2.92a0.47,0.47,0,0,0-.55-0.56c-1.09,0-2.18,0-3.27,0a0.48,0.48,0,0,0-.54.47c0,0.47,0,.94,0,1.43h1.25l-2.2,2.2-2.16-2.19h1.22c0-.42,0-0.81,0-1.2a2.75,2.75,0,0,1,.3-1.83,1.58,1.58,0,0,1,1.34-.71h4.74a1.72,1.72,0,0,1,1.67,1.66q0,2.23,0,4.47v0.3Z" transform="translate(-1525.81 -66.54)"/><path class="cls-7" d="M1814.62,91.62l-2.19,2.16V92.55h-1.15a2.84,2.84,0,0,1-1.87-.29,1.57,1.57,0,0,1-.71-1.34q0-2.38,0-4.76a1.75,1.75,0,0,1,1.65-1.67c1.49,0,3,0,4.47,0h0.3a2.51,2.51,0,0,0-.82,1.78h-3.18a0.47,0.47,0,0,0-.55.54c0,1.09,0,2.18,0,3.27a0.48,0.48,0,0,0,.5.55c0.46,0,.91,0,1.39,0V89.42Z" transform="translate(-1525.81 -66.54)"/><path class="cls-7" d="M1819.26,92.54v1.22l-2.17-2.18,2.17-2.12v1.18h1.16a2.86,2.86,0,0,1,1.85.3,1.57,1.57,0,0,1,.72,1.33c0,1.59,0,3.19,0,4.78a1.74,1.74,0,0,1-1.64,1.65c-1.5,0-3,0-4.49,0h-0.29a2.49,2.49,0,0,0,.83-1.79h3.19a0.46,0.46,0,0,0,.53-0.53c0-1.1,0-2.2,0-3.3a0.5,0.5,0,0,0-.52-0.54C1820.18,92.52,1819.73,92.54,1819.26,92.54Z" transform="translate(-1525.81 -66.54)"/><path class="cls-7" d="M1975.79,103.5a1.85,1.85,0,0,0,1.05.59h0c0.27,0.06.27,0.06,0.27,0.33q0,1,0,2.09a0.3,0.3,0,0,0,.35.35l2.49,0a0.36,0.36,0,0,0,.36-0.32c0-.36,0-0.72,0-1.09h-0.93l1.63-1.64,1.6,1.63h-0.92c0,0.17,0,.31,0,0.46,0,0.35,0,.7,0,1a1.26,1.26,0,0,1-1.26,1.27c-1.16,0-2.33,0-3.49,0a1.27,1.27,0,0,1-1.23-1.23q0-1.66,0-3.32V103.5Z" transform="translate(-1525.81 -66.54)"/><path class="cls-7" d="M1986.35,102.51a1.84,1.84,0,0,0-1.32-.62v-0.18q0-1.08,0-2.16a0.35,0.35,0,0,0-.4-0.41l-2.42,0a0.35,0.35,0,0,0-.4.35c0,0.35,0,.69,0,1.06h0.93l-1.63,1.63-1.6-1.62h0.9c0-.31,0-0.6,0-0.89a2,2,0,0,1,.22-1.35,1.17,1.17,0,0,1,1-.52h3.51a1.27,1.27,0,0,1,1.24,1.23q0,1.65,0,3.31v0.22Z" transform="translate(-1525.81 -66.54)"/><path class="cls-7" d="M1980.17,103l-1.62,1.6v-0.91h-0.85a2.1,2.1,0,0,1-1.39-.22,1.16,1.16,0,0,1-.53-1q0-1.76,0-3.52a1.3,1.3,0,0,1,1.22-1.23c1.1,0,2.2,0,3.31,0h0.22a1.85,1.85,0,0,0-.61,1.31h-2.35a0.35,0.35,0,0,0-.41.4c0,0.81,0,1.61,0,2.42a0.36,0.36,0,0,0,.37.41c0.34,0,.67,0,1,0V101.4Z" transform="translate(-1525.81 -66.54)"/><path class="cls-7" d="M1983.6,103.7v0.9L1982,103l1.6-1.57v0.88h0.86a2.12,2.12,0,0,1,1.37.22,1.16,1.16,0,0,1,.53,1c0,1.18,0,2.36,0,3.54a1.29,1.29,0,0,1-1.21,1.22c-1.11,0-2.22,0-3.32,0h-0.22a1.84,1.84,0,0,0,.62-1.32h2.36a0.34,0.34,0,0,0,.39-0.39c0-.81,0-1.63,0-2.44a0.37,0.37,0,0,0-.39-0.4C1984.28,103.69,1984,103.7,1983.6,103.7Z" transform="translate(-1525.81 -66.54)"/></svg>