<svg xmlns="http://www.w3.org/2000/svg" width="271.24" height="47.955" viewBox="0 0 271.24 47.955">
  <defs>
    <style>
      .cls-1, .cls-4 {
        fill: #fff;
      }

      .cls-2 {
        fill: #4a82bc;
      }

      .cls-2, .cls-3, .cls-4 {
        fill-rule: evenodd;
      }

      .cls-3 {
        fill: #98cb60;
      }
    </style>
  </defs>
  <g id="logo" transform="translate(-149 -24.936)">
    <g id="组_3" data-name="组 3">
      <g id="组_1" data-name="组 1">
        <path id="路径_1" data-name="路径 1" class="cls-1" d="M212.318,32.088a32.564,32.564,0,0,1-2.879,3.747V48.619h-3.2V39.044c-.753.661-1.479,1.273-2.206,1.812a29.241,29.241,0,0,0-2.178-2.523,24.887,24.887,0,0,0,7.4-7.323Zm-.995-5.216a34.942,34.942,0,0,1-7.4,6.441,17.019,17.019,0,0,0-1.776-2.376,23.175,23.175,0,0,0,6.08-5.216Zm15.818,9.747h-3.686v8.6c0,1.567-.323,2.375-1.506,2.816a16.235,16.235,0,0,1-5.246.49,11.269,11.269,0,0,0-.969-2.963c1.534.073,3.309.073,3.793.049.485,0,.673-.1.673-.465V36.619h-7.936V33.852h14.877Zm-.673-6.735H213.394V27.117h13.074Z"/>
        <path id="路径_2" data-name="路径 2" class="cls-1" d="M253.242,32.872a26.367,26.367,0,0,1-3.121,9.428,12.819,12.819,0,0,0,5.03,3.772,11.1,11.1,0,0,0-2.178,2.5,14.252,14.252,0,0,1-4.816-3.722,16.958,16.958,0,0,1-5.488,3.8,11.275,11.275,0,0,0-1.8-2.572,13.536,13.536,0,0,0,5.488-3.8,25.838,25.838,0,0,1-2.206-5.388,11.856,11.856,0,0,1-.941,1.2,14.6,14.6,0,0,0-1.48-1.323v.22h-3.067v5.021l3.793-.735.269,2.67c-4.411.93-9.173,1.861-12.617,2.571l-.564-2.964,1.4-.22V32.9h2.879v9.968l1.722-.294V29.958H230.16V27.166h12.321v2.792h-3.82v4.285h3.067v.613a23.03,23.03,0,0,0,3.335-9.135l3.175.44a38.585,38.585,0,0,1-.968,4.017h7.64v2.694Zm-7.075.318a26.929,26.929,0,0,0,2.044,6.172,22.024,22.024,0,0,0,1.8-6.49H246.3Z"/>
        <path id="路径_3" data-name="路径 3" class="cls-1" d="M266.861,27.655c-.7,2.058-1.587,4.507-2.34,6.417a7.522,7.522,0,0,1,1.963,5.069c0,1.592-.349,2.645-1.21,3.233a3.474,3.474,0,0,1-1.534.539,9.792,9.792,0,0,1-1.721.049,5.477,5.477,0,0,0-.7-2.5,9.68,9.68,0,0,0,1.157.024,1.237,1.237,0,0,0,.726-.195c.323-.221.458-.76.458-1.47a6.58,6.58,0,0,0-1.856-4.482c.537-1.469,1.075-3.453,1.506-5.069h-2.152V48.521h-2.8V26.676H264.3l.458-.123ZM279.478,45.8c.4,0,.538-.417.591-2.915a8.33,8.33,0,0,0,2.61,1.078c-.242,3.355-.995,4.286-2.879,4.286h-1.856c-2.367,0-2.9-.833-2.9-3.257V40h-1.775c-.4,4.114-1.641,6.955-6.86,8.6a7.626,7.626,0,0,0-1.776-2.351c4.277-1.2,5.246-3.184,5.569-6.245h-3.228V37.4H282.3V40h-4.223v5.02c0,.686.053.784.43.784ZM268.986,33.411h-2.1V28.586h6.241a17.178,17.178,0,0,0-1.1-2.327l3.04-.783a14.976,14.976,0,0,1,1.533,3.11h5.569v4.825h-2.126V35.59H268.986Zm.861-2.327v1.984H279.1V31.084Z"/>
        <path id="路径_4" data-name="路径 4" class="cls-1" d="M309.56,43.109c-1.049.49-2.1.98-3.094,1.4a11.7,11.7,0,0,0,3.74,1.592,10.33,10.33,0,0,0-1.883,2.228,11.261,11.261,0,0,1-7.291-6.539,17.356,17.356,0,0,1-2.609,1.69v2.106l3.793-.661a11.333,11.333,0,0,0-.027,2.131c-4.977.979-5.864,1.2-6.376,1.494a6.915,6.915,0,0,0-1.022-1.959,1.7,1.7,0,0,0,1.076-1.666V44.7c-.753.294-1.479.514-2.205.734a13.242,13.242,0,0,0-1.238-1.42l.027.171c-2.475.662-5.111,1.274-7.29,1.813l-.538-2.645c.78-.147,1.641-.343,2.636-.563V36.766h-2.1V34.243h2.1V29.688h-2.287V27.141h7.291v2.547h-2.206v4.555h1.964v2.523h-1.964v5.412l2.017-.489.242,1.665a25.755,25.755,0,0,0,5.515-1.984h-3.094V36.006h13.4V41.37h-4.492a6.777,6.777,0,0,0,1.156,1.665,21.959,21.959,0,0,0,2.664-1.64Zm.081-7.959H293.177v-2.3h16.464Zm-.861-3.086H294.119V26.5H308.78Zm-10.384-3.6h-1.7V30.1h1.7Zm-.834,10.9h7.559V37.99h-7.559Zm4.654-10.9h-1.722V30.1h1.722Zm3.82,0h-1.775V30.1h1.775Z"/>
        <path id="路径_5" data-name="路径 5" class="cls-1" d="M321.565,42.693c-2.771,1.053-5.838,2.179-8.259,3.036l-1.049-2.988c.888-.244,1.937-.538,3.094-.906V34.292h-2.61V31.525h2.61V26.039h3.12v5.486h2.287v2.767h-2.287v6.564c.834-.27,1.641-.539,2.475-.809ZM333.993,46a1.813,1.813,0,0,0,.538-.049c.135-.049.242-.2.323-.49a17.146,17.146,0,0,0,.107-1.837,8.509,8.509,0,0,0,2.449,1.2,8.263,8.263,0,0,1-.4,2.3,2.109,2.109,0,0,1-1.13.906,5.917,5.917,0,0,1-1.668.221h-1.721a3.536,3.536,0,0,1-2.045-.588c-.511-.416-.753-.93-.753-2.425V42.276h-1.937c-.457,3.233-1.8,5.241-6.833,6.392a6.72,6.72,0,0,0-1.641-2.228c4.143-.735,5.112-1.984,5.488-4.164h-2.233v-7.4h12.886v7.4h-2.771v3.037c0,.318,0,.49.108.588a.875.875,0,0,0,.484.1Zm2.744-11.952H321.484v-2.4h3.255a10.683,10.683,0,0,0-.592-1.616l2.583-.465a11.233,11.233,0,0,1,.834,2.081h3.04c.295-.685.591-1.469.78-2.081l2.9.489c-.323.564-.592,1.1-.888,1.592h3.336Zm-.7-4.506h-13.8V27.19h5.327c-.162-.392-.323-.808-.458-1.151l3.014-.514c.241.49.51,1.126.726,1.665h5.192Zm-10.573,8.18h6.887V36.693h-6.887Zm0,2.719h6.887V39.411h-6.887Z"/>
        <path id="路径_6" data-name="路径 6" class="cls-1" d="M348.984,26.651a35.361,35.361,0,0,1-2.663,5.07v16.8h-3.04V35.933c-.618.71-1.264,1.372-1.883,1.984a18.85,18.85,0,0,0-1.721-2.988,25.655,25.655,0,0,0,6.348-9.159Zm4.708,14.891a30.92,30.92,0,0,1-4.116,5.975A16.945,16.945,0,0,0,347.1,45.95a22.032,22.032,0,0,0,3.712-5.192ZM358.023,40v8.6H354.8V40h-7.021V37.354H354.8V35.2h-5.273V26.774h14.124V35.2h-5.623v2.156h6.968V40Zm-5.461-7.372h7.882V29.345h-7.882Zm8.743,8.106A28.568,28.568,0,0,1,365.26,45.9l-2.529,1.4a32.343,32.343,0,0,0-3.793-5.364Z"/>
        <path id="路径_7" data-name="路径 7" class="cls-1" d="M377.561,32.064H367.58v-2.3h4.52a22.1,22.1,0,0,0-1.7-3.085l2.394-1.053a23.755,23.755,0,0,1,1.964,3.257l-1.749.881h4.547Zm14.149,9.747a11.3,11.3,0,0,1-3.685,3.649,29.326,29.326,0,0,0,4.977.808,10.234,10.234,0,0,0-1.749,2.3,22.8,22.8,0,0,1-6.268-1.616,32.9,32.9,0,0,1-6.886,1.665,8.168,8.168,0,0,0-1.319-2.253v.882h-5.488v1.028h-2.609V39.827h8.1v6.514a32.544,32.544,0,0,0,5.407-.955,11.413,11.413,0,0,1-2.125-2.032l1.022-.294h-2.932V41.1h11.191l.485-.1ZM381.327,29.076h-3.713V26.921h3.713v-1.2h2.8v4.506h-2.314l.646.147c-.162.367-.323.759-.512,1.127h2.367c-.134-.392-.269-.809-.4-1.152l2.233-.49V25.721h2.825V26.9h3.551v2.155h-3.551v1.176h-1.991c.161.392.323.857.457,1.274h4.412v1.738h-4.6v.833h3.874v1.445h-3.874v.832h3.874v1.446h-3.874v.881h5.138v1.69H381.757v.367h-2.636v-5a8.173,8.173,0,0,1-.942.931,20.824,20.824,0,0,0-1.533-2.106v.808h-7.909v-2.2h7.909v1.3a12.863,12.863,0,0,0,3.255-4.751l1.4.392Zm-12.59,7.371h7.909v2.2h-7.909Zm5.38,5.706h-2.825V44.9h2.825Zm10.465-8.914h-2.825v.833h2.825Zm0,2.278h-2.825v.832h2.825Zm0,2.278h-2.825v.881h2.825ZM383.1,43.06a7.44,7.44,0,0,0,1.964,1.3,10.048,10.048,0,0,0,2.179-1.3Z"/>
        <path id="路径_8" data-name="路径 8" class="cls-1" d="M411.812,38.847c-.726.368-1.452.735-2.232,1.078h7.882v8.547h-3.121v-.539H404.065v.588h-2.959V42.888c-1.506.417-3.04.784-4.6,1.127A14.266,14.266,0,0,0,395,41.542a63.385,63.385,0,0,0,10.437-2.695h-9.711V36.57h9.6v-1.2H398.6v-2.2h6.726V32.039h-8.179v-5.51H418.4v5.51h-9.98v1.127h5.488v1.469a21.041,21.041,0,0,0,2.583-2.106l2.528,1.4a26.3,26.3,0,0,1-3.335,2.645h4.035v2.277Zm-8.635-10.335h-2.986v1.519h2.986Zm.969,13.47-.081.025v.955h10.276v-.98Zm10.2,3.894v-1.1H404.065v1.1Zm-8.232-15.845h3.04V28.512h-3.04Zm2.314,6.539h2.26c.726-.392,1.452-.784,2.125-1.2h-4.385Zm3.659-6.539h3.12V28.512h-3.12Z"/>
      </g>
      <g id="组_2" data-name="组 2">
        <path id="路径_9" data-name="路径 9" class="cls-1" d="M214.875,58.662c1.09.973,3.229,1.433,5.955,1.561a7.1,7.1,0,0,0-1.332,1.745,10.185,10.185,0,0,1-5.29-1.855c-.767.809-2.442,1.525-5.834,1.874a6.1,6.1,0,0,0-.807-1.194h-5.35V59.121h6.1v1.121c3.856-.368,4.361-1.195,4.361-1.874v-.276h-1.211a8.243,8.243,0,0,1-1.413,1.58,11.668,11.668,0,0,0-1.777-1.121,7.377,7.377,0,0,0,2.362-3.27l2.1.423c-.1.276-.222.551-.343.808h5.733l.363-.091,1.635.459a15.844,15.844,0,0,1-1.857,2.9l-1.857-.624a10.715,10.715,0,0,0,.706-1.066h-2.24v.57Zm.544,10.8c1.858.625,3.836,1.36,5.027,1.893l-2.16,1.175a39.171,39.171,0,0,0-5.248-2.168l1.231-.9h-5.693l1.757.735a27.734,27.734,0,0,1-6.3,2.389,15.655,15.655,0,0,0-1.777-1.6,24.761,24.761,0,0,0,5.512-1.525h-2.908V62.005h13.506v7.459Zm-7.57-11.574h-5.168v-1.6h5.168Zm-.666,6.21h8.741v-.79h-8.741Zm0,2.021h8.741v-.79h-8.741Zm0,2.057h8.741v-.826h-8.741Z"/>
        <path id="路径_10" data-name="路径 10" class="cls-1" d="M225.164,63.916c-.707-.515-2.221-1.323-3.27-1.892l1.352-1.562c1.029.46,2.564,1.212,3.371,1.69Zm1.776,2.517c-.767,1.966-1.716,4.06-2.6,5.879l-2.2-1.176a50.2,50.2,0,0,0,2.826-5.9Zm-.807-7.367c-.727-.533-2.241-1.4-3.271-1.966l1.373-1.58c1.01.514,2.584,1.3,3.351,1.8Zm10.356,7.44v3.969c0,.937-.162,1.451-.868,1.745a7.448,7.448,0,0,1-2.867.312,7.914,7.914,0,0,0-.626-1.874c.707.019,1.515.019,1.757.019.222,0,.3-.055.3-.257V66.506H231V59.874H233.7a11.144,11.144,0,0,0,.484-1.561h-3.895v3.1c0,3.251-.364,8.1-2.766,11.151a10.361,10.361,0,0,0-2.019-1.176c2.261-2.829,2.463-7,2.463-9.975V56.347h12.617v1.966h-5.915l2.261.367c-.263.4-.525.808-.787,1.194H240v6.632Zm-3.028,1.286a22.986,22.986,0,0,1-2.322,3.785,12.964,12.964,0,0,0-1.877-1.066,12.825,12.825,0,0,0,2.079-3.288Zm-.343-5.346h4.663v-1.01h-4.663Zm0,2.5h4.663V63.916h-4.663Zm6.015,2.094c.646,1.1,1.534,2.591,1.959,3.491l-2.221.882a33.909,33.909,0,0,0-1.817-3.657Z"/>
        <path id="路径_11" data-name="路径 11" class="cls-1" d="M259.9,56V72.532h-2.624v-.973H245.144v.973h-2.5V56Zm-2.624,13.521V58.239H245.144v11.28Zm-1.958-9.112v6.981h-8.236V60.407ZM252.9,62.318h-3.554V65.5H252.9Z"/>
        <path id="路径_12" data-name="路径 12" class="cls-1" d="M279.375,60.866a19.95,19.95,0,0,1-2.5,6.908,11.367,11.367,0,0,0,3.856,2.921,7.78,7.78,0,0,0-1.636,1.8,12.55,12.55,0,0,1-3.613-2.884,13.164,13.164,0,0,1-4,3.013,9.879,9.879,0,0,0-1.554-1.782,11.124,11.124,0,0,0,4.2-3.087,18.538,18.538,0,0,1-1.918-4,12.387,12.387,0,0,1-1.049,1.322,11.263,11.263,0,0,0-1.454-1.708v9.223h-2.382V67.847c-3.21,1.029-3.876,1.36-4.32,1.691a7.945,7.945,0,0,0-.929-2,1.333,1.333,0,0,0,.747-1.3V57.376h2.362v8.965l2.14-.588V55.686H269.7v7.238c1.575-1.782,2.5-4.575,2.988-7.532l2.443.367c-.2,1.029-.425,2.058-.707,3.031h6.157v2.076Zm-5.673,0c-.06.165-.141.331-.2.5a18.581,18.581,0,0,0,1.918,4.41,16.172,16.172,0,0,0,1.575-4.906Z"/>
        <path id="路径_13" data-name="路径 13" class="cls-1" d="M300.343,58.166h-3.512a12.2,12.2,0,0,1,1.554,1.249L297.053,60.5h2.685v3.2h-2.463V62.134H284.819v1.561H282.5V60.5h.727a13.685,13.685,0,0,0-1.555-1.415,10.6,10.6,0,0,0,2.947-3.858l2.12.551a6.174,6.174,0,0,1-.363.735h4.441v1.525a7.723,7.723,0,0,0,2.12-2.811l2.16.514a6.482,6.482,0,0,1-.364.772h5.592Zm-12.7,2.333a13.935,13.935,0,0,0-1.837-1.709l.746-.606h-1.191a14.922,14.922,0,0,1-2.018,2.315Zm-.283,7.33h10.921v4.74h-2.4v-.5h-8.519v.5H284.92V62.887h12.294v4.1h-9.851Zm0-3.362v.955h7.51v-.955Zm0,4.96v1.029h8.519V69.427Zm4.219-10.343a10.962,10.962,0,0,0-1.13-.771l.181-.129h-2.665a12.569,12.569,0,0,1,1.192,1.1L287.706,60.5h2.3a8.454,8.454,0,0,0-.525-1.047Zm4.986,1.415a18.95,18.95,0,0,0-2-1.654l.867-.679h-1.8a7.908,7.908,0,0,1-1.413,1.433c-.142-.129-.343-.276-.565-.441a6.992,6.992,0,0,1,.767,1.341Z"/>
        <path id="路径_14" data-name="路径 14" class="cls-1" d="M308.513,68.876c-2.221.717-4.643,1.415-6.581,1.984l-.545-2.223c.707-.165,1.534-.367,2.463-.606V63.714h-2.039v-2h2.039V58.478h-2.221V56.439h6.662v2.039h-2.16v3.234h1.817v2h-1.817v3.674c.666-.184,1.332-.367,1.978-.57ZM320.5,70v1.984h-12.98V70H313.1V68.252h-4.179V66.286H313.1v-1.58h-4.037V56.163H319.6v8.543h-4.057v1.58h4.279v1.966h-4.279V70Zm-9.286-10.453h2.08V58.019h-2.08Zm0,3.306h2.08V61.271h-2.08Zm6.1-4.831h-2v1.525h2Zm0,3.252h-2V62.85h2Z"/>
        <path id="路径_15" data-name="路径 15" class="cls-1" d="M336.547,65.808a12.16,12.16,0,0,0,3.937,2.132,7.738,7.738,0,0,0-1.6,1.69,13.783,13.783,0,0,1-3.169-1.93v1.36h-3.675v1.194h6.581v1.8H323.264v-1.8H329.6V69.06H326.03V67.921a14.231,14.231,0,0,1-3.21,1.874,8.348,8.348,0,0,0-1.534-1.672,12.426,12.426,0,0,0,4.077-2.315h-3.9V64.026h3.856V58.551h-2.786V56.788h2.786V55.41h2.4v1.378h6.318V55.41h2.463v1.378h2.765v1.763h-2.765v5.475h3.735v1.782Zm-1.272,1.525a11.738,11.738,0,0,1-1.453-1.525h-5.693a11.491,11.491,0,0,1-1.433,1.525H329.6V66.194h2.442v1.139Zm-7.549-8.782v.809h6.318v-.809Zm0,3.123h6.318v-.808h-6.318Zm0,2.352h6.318V63.2h-6.318Z"/>
        <path id="路径_16" data-name="路径 16" class="cls-1" d="M352.025,62.7v1.911h6.439V66.58h-3.189l2.018.661c-.706,1.029-1.493,2.131-2.119,2.921h4.34v2H342.052v-2h3.977a14.814,14.814,0,0,0-1.675-2.976l1.594-.606h-2.927V64.614h6.42V62.7h-4.1v-.9q-1.272.552-2.6.992a7.913,7.913,0,0,0-1.594-2.02c3.795-.993,7.429-2.848,9.346-5.585l2.281.937c-.181.238-.363.477-.564.734a23.21,23.21,0,0,0,8.276,3.914,10.763,10.763,0,0,0-1.655,1.91,27.854,27.854,0,0,1-2.745-1.066V62.7Zm-5.632,3.877a12.294,12.294,0,0,1,1.756,2.921l-1.656.661h2.948V66.58Zm7.913-5.879a23.25,23.25,0,0,1-3.493-2.388,17.766,17.766,0,0,1-3.27,2.388Zm-2.281,5.879v3.582h2.523l-1.353-.514a16.4,16.4,0,0,0,1.777-3.068Z"/>
        <path id="路径_17" data-name="路径 17" class="cls-1" d="M379.937,58.166h-3.512a12.268,12.268,0,0,1,1.554,1.249L376.647,60.5h2.685v3.2h-2.463V62.134H364.414v1.561h-2.322V60.5h.726a13.589,13.589,0,0,0-1.554-1.415,10.6,10.6,0,0,0,2.947-3.858l2.12.551a6.169,6.169,0,0,1-.363.735h4.441v1.525a7.723,7.723,0,0,0,2.12-2.811l2.16.514a6.477,6.477,0,0,1-.364.772h5.592ZM367.24,60.5A13.884,13.884,0,0,0,365.4,58.79l.747-.606h-1.191A14.869,14.869,0,0,1,362.94,60.5Zm-.283,7.33h10.921v4.74h-2.4v-.5h-8.519v.5h-2.443V62.887h12.295v4.1h-9.852Zm0-3.362v.955h7.51v-.955Zm0,4.96v1.029h8.519V69.427Zm4.219-10.343a10.854,10.854,0,0,0-1.13-.771l.182-.129h-2.666a12.572,12.572,0,0,1,1.192,1.1L367.3,60.5h2.3a8.892,8.892,0,0,0-.525-1.047Zm4.987,1.415a18.965,18.965,0,0,0-2-1.654l.868-.679h-1.8a7.843,7.843,0,0,1-1.413,1.433c-.141-.129-.343-.276-.565-.441a6.938,6.938,0,0,1,.767,1.341Z"/>
        <path id="路径_18" data-name="路径 18" class="cls-1" d="M388.107,68.876c-2.22.717-4.643,1.415-6.581,1.984l-.545-2.223c.707-.165,1.535-.367,2.463-.606V63.714H381.4v-2h2.039V58.478h-2.22V56.439h6.662v2.039h-2.16v3.234h1.816v2h-1.816v3.674c.666-.184,1.332-.367,1.978-.57ZM400.1,70v1.984H387.118V70h5.572V68.252h-4.179V66.286h4.179v-1.58h-4.037V56.163H399.19v8.543h-4.057v1.58h4.28v1.966h-4.28V70Zm-9.287-10.453h2.08V58.019h-2.08Zm0,3.306h2.08V61.271h-2.08Zm6.1-4.831h-2v1.525h2Zm0,3.252h-2V62.85h2Z"/>
        <path id="路径_19" data-name="路径 19" class="cls-1" d="M412.165,55.924c-.1.11-.2.239-.3.35a20.4,20.4,0,0,0,8.378,3.306,7.672,7.672,0,0,0-1.514,1.672c-.4-.092-.828-.221-1.252-.33v4.739h-14.03v-4.63c-.424.129-.848.258-1.252.349a11.778,11.778,0,0,0-1.292-1.689c3.715-.79,7.308-2.315,9.145-4.446Zm4.582,4.759A23.749,23.749,0,0,1,414,59.562v.478h-7.085v-.368a25.528,25.528,0,0,1-2.443,1.011Zm-12.173,5.585h11.87v6.209h-2.463v-.441h-7.045v.5h-2.362Zm2.281-1.929a6.8,6.8,0,0,0-.686-1.911l1.554-.4h-2.281v2.315Zm.081,3.361v.735h7.045V67.7Zm7.045,2.9v-.735h-7.045V70.6ZM409.4,62.024h-1.575a7.872,7.872,0,0,1,.808,1.947l-1.292.368H409.4Zm2.907-3.4a19.686,19.686,0,0,1-1.7-1.194c-.525.4-1.11.808-1.716,1.194Zm-.969,3.4v2.315h1.877L412,64.026a13.536,13.536,0,0,0,.788-2Zm4,0h-2.1l1.575.349c-.4.735-.787,1.451-1.11,1.966h1.635Z"/>
      </g>
    </g>
    <g id="logo-2" data-name="logo">
      <path id="路径_20" data-name="路径 20" class="cls-1" d="M196.955,48.912a23.978,23.978,0,1,1-23.978-23.976,23.978,23.978,0,0,1,23.978,23.976"/>
      <path id="路径_21" data-name="路径 21" class="cls-2" d="M172.98,48.9l-20.062,8.412a21.841,21.841,0,0,1-1.677-7.441c-.014-.325-.024-.648-.024-.971a21.761,21.761,0,1,1,43.521,0,23.315,23.315,0,0,1-.6,4.928Z"/>
      <path id="路径_22" data-name="路径 22" class="cls-3" d="M176.368,45.8l7.742,10.039,10.037-2.116a21.8,21.8,0,0,1-42.109,1.53l17.642.485Z"/>
      <path id="路径_23" data-name="路径 23" class="cls-4" d="M151.238,49.988l7.416-.031q4.3-6.447,8.6-12.9a1.139,1.139,0,0,1,1.325-.432l2.259,2.4L161.88,51.567,151.3,51.543Z"/>
      <path id="路径_24" data-name="路径 24" class="cls-3" d="M151.789,54.28h14.352l10.676-15.862,11.01,15.862h6.042l-.321.858H186.53l-9.707-14.024-9.794,14.242-14.973-.105Z"/>
      <path id="路径_25" data-name="路径 25" class="cls-4" d="M152.261,55.931l-.223-.68L167,55.179l9.855-14.11,9.742,14.086h7.2l-.615,1.644H183.3l-6.844-9.676-6.013,9.462-17.961.006Z"/>
      <path id="路径_26" data-name="路径 26" class="cls-4" d="M151.789,54.28l-.147-.787-.093-.9,11.229.044L175.664,33.3a1.25,1.25,0,0,1,1.115-.39,1.615,1.615,0,0,1,1.036.573L191.2,52.824h3.2l-.341,1.456-6.21-.027L176.74,38.6,166.215,54.36Z"/>
    </g>
  </g>
</svg>
