<?xml version="1.0" encoding="utf-8"?>
<!-- Generator: Adobe Illustrator 26.0.0, SVG Export Plug-In . SVG Version: 6.00 Build 0)  -->
<svg version="1.1" id="圖層_3" xmlns="http://www.w3.org/2000/svg" xmlns:xlink="http://www.w3.org/1999/xlink" x="0px" y="0px"
	 viewBox="0 0 71.3 46.8" style="enable-background:new 0 0 71.3 46.8;" xml:space="preserve">
<style type="text/css">
	.st0{fill:#FFFFFF;}
</style>
<g>
	<g>
		<g>
			<path class="st0" d="M35.7,31.8c-5.1,0-12.8-7.7-12.8-17.3c0-8.8,5-14.5,12.8-14.5s12.8,5.8,12.8,14.6
				C48.5,24.3,41.6,31.8,35.7,31.8z M35.7,1.9c-6.8,0-11,4.8-11,12.6c0,8.4,6.8,15.5,11,15.5c5,0,11-6.9,11-15.5
				C46.7,6.8,42.5,1.9,35.7,1.9z"/>
		</g>
		<g>
			<path class="st0" d="M35.7,46.8c-11.1,0-19.9-3.5-20.3-3.6c-0.3-0.1-0.4-0.3-0.5-0.6s0-0.5,0.1-0.8c0.2-0.4,5.7-8.7,13.5-12.4
				c0.4-0.2,0.9-0.1,1.1,0.3c2.4,3.2,5,5.5,6.1,6.4c1.1-0.9,3.8-3.2,6.1-6.4c0.3-0.3,0.7-0.5,1.1-0.3c7.8,3.8,13.2,12.1,13.5,12.4
				c0.1,0.2,0.2,0.5,0.1,0.8c-0.1,0.3-0.3,0.5-0.5,0.6C55.6,43.3,46.7,46.8,35.7,46.8z M17.1,41.9c2.7,0.9,10,3.1,18.5,3.1
				s15.8-2.2,18.5-3.1c-1.6-2.2-5.9-7.6-11.4-10.5c-3.1,4-6.4,6.5-6.6,6.6c-0.3,0.2-0.8,0.2-1.1,0c-0.1-0.1-3.5-2.6-6.6-6.6
				C23,34.3,18.7,39.7,17.1,41.9z"/>
		</g>
	</g>
	<g>
		<g>
			<path class="st0" d="M58,28.9c-3.6,0-8.2-5.2-8.2-10.9c0-5.6,3.2-9.2,8.2-9.2s8.2,3.6,8.2,9.2C66.2,24.2,61.8,28.9,58,28.9z
				 M58,10.6c-3.9,0-6.4,2.8-6.4,7.4c0,5.3,4.2,9.1,6.4,9.1c2.9,0,6.4-4.2,6.4-9.1C64.4,13.4,62,10.6,58,10.6z"/>
		</g>
		<g>
			<path class="st0" d="M58,38.1c-1.3,0-2.6-0.1-3.9-0.2c-0.2,0-0.4-0.1-0.6-0.3c0,0-3.1-3.7-5.2-5.7c-0.2-0.2-0.3-0.4-0.3-0.6
				c0-0.2,0.1-0.5,0.3-0.6c1.7-1.7,3.4-2.9,5.1-3.8c0.4-0.2,0.9-0.1,1.1,0.3c1.3,1.7,2.7,3,3.5,3.7c0.8-0.6,2.2-1.9,3.5-3.7
				c0.3-0.3,0.7-0.5,1.1-0.3c4.9,2.3,8.2,7.5,8.4,7.7c0.1,0.2,0.2,0.5,0.1,0.8s-0.3,0.5-0.5,0.6C70.4,35.9,64.9,38.1,58,38.1z
				 M54.7,36.1c1.1,0.1,2.3,0.2,3.4,0.2c4.7,0,8.9-1.1,10.8-1.7c-1.1-1.4-3.4-4.2-6.3-5.8c-1.9,2.3-3.8,3.8-3.9,3.9
				c-0.3,0.2-0.8,0.2-1.1,0c-0.1-0.1-2-1.5-3.9-3.9c-1.1,0.6-2.2,1.4-3.3,2.5C52,33,54,35.3,54.7,36.1z"/>
		</g>
	</g>
	<g>
		<g>
			<path class="st0" d="M13.3,28.9c-3.8,0-8.2-4.8-8.2-10.9c0-5.6,3.2-9.2,8.2-9.2s8.2,3.6,8.2,9.2C21.5,23.8,16.9,28.9,13.3,28.9z
				 M13.3,10.6c-3.9,0-6.4,2.8-6.4,7.4c0,4.9,3.5,9.1,6.4,9.1c2.2,0,6.4-3.9,6.4-9.1C19.7,13.4,17.2,10.6,13.3,10.6z"/>
		</g>
		<g>
			<path class="st0" d="M13.3,38.1c-6.8,0-12.3-2.2-12.6-2.3s-0.4-0.3-0.5-0.6s0-0.5,0.1-0.8c0.1-0.2,3.5-5.4,8.4-7.7
				c0.4-0.2,0.9-0.1,1.1,0.3c1.3,1.7,2.7,3,3.5,3.7c0.8-0.6,2.2-1.9,3.5-3.7c0.3-0.3,0.7-0.5,1.1-0.3c1.7,0.8,3.4,2.1,5.1,3.8
				c0.2,0.2,0.3,0.4,0.3,0.6c0,0.2-0.1,0.5-0.3,0.6c-2.1,2.1-5.1,5.7-5.2,5.7c-0.1,0.2-0.4,0.3-0.6,0.3C15.9,38,14.6,38.1,13.3,38.1
				z M2.5,34.6c1.9,0.6,6,1.7,10.8,1.7c1.1,0,2.2-0.1,3.4-0.2c0.7-0.8,2.7-3.1,4.4-4.9c-1.1-1-2.2-1.8-3.3-2.5
				c-1.9,2.3-3.8,3.8-3.9,3.9c-0.3,0.2-0.8,0.2-1.1,0c-0.1-0.1-2-1.5-3.9-3.9C5.9,30.4,3.6,33.1,2.5,34.6z"/>
		</g>
	</g>
</g>
</svg>
