<?xml version="1.0" encoding="utf-8"?>
<!-- Generator: Adobe Illustrator 19.2.1, SVG Export Plug-In . SVG Version: 6.00 Build 0)  -->
<svg version="1.1" id="圖層_3" xmlns="http://www.w3.org/2000/svg" xmlns:xlink="http://www.w3.org/1999/xlink" x="0px" y="0px"
	 viewBox="0 0 71.3 71.3" style="enable-background:new 0 0 71.3 71.3;" xml:space="preserve">
<style type="text/css">
	.st0{fill:#FFFFFF;}
</style>
<title>menu3</title>
<g>
	<g>
		<g>
			<path class="st0" d="M34.3,46c-1.7,0-3-1.3-3-2.9v-0.2c0-5.2,3-8.4,5.5-11c2.2-2.3,3.4-3.7,3.4-5.7c0-1.9-1.6-3.6-3.6-3.7
				c-2.3-0.2-4.9,0.9-5.6,3.5c-0.2,0.8-0.7,1.4-1.4,1.8c-0.7,0.4-1.5,0.5-2.3,0.3c-1.6-0.4-2.6-2.1-2.2-3.7c1.5-5.9,7.2-8.3,11.8-8
				c5.1,0.3,9.2,4.7,9.2,9.8c0,4.5-2.8,7.5-5.1,9.9c-2.1,2.3-3.8,4.1-3.8,6.8C37.3,44.6,35.9,46,34.3,46z M36.2,20.8
				c0.2,0,0.4,0,0.6,0c2.8,0.2,5.1,2.6,5.1,5.4s-1.8,4.7-3.9,6.9c-2.5,2.6-5,5.3-5,9.8v0.2c0,0.7,0.6,1.3,1.3,1.3s1.3-0.7,1.3-1.4
				c0-3.4,2.1-5.6,4.3-8c2.3-2.4,4.6-4.9,4.6-8.7c0-4.2-3.4-7.8-7.6-8.1c-4-0.3-8.8,1.7-10.1,6.7c-0.2,0.7,0.2,1.4,1,1.6
				c0.3,0.1,0.7,0,1-0.1c0.3-0.2,0.5-0.5,0.6-0.8C30.3,22.2,33.3,20.8,36.2,20.8z"/>
		</g>
		<g>
			<path class="st0" d="M34.5,54.9c-1.8,0-3.3-1.5-3.3-3.3s1.5-3.3,3.3-3.3s3.3,1.5,3.3,3.3S36.3,54.9,34.5,54.9z M34.5,49.9
				c-0.9,0-1.6,0.7-1.6,1.6c0,0.9,0.7,1.6,1.6,1.6s1.6-0.7,1.6-1.6C36.1,50.6,35.4,49.9,34.5,49.9z"/>
		</g>
	</g>
	<g>
		<path class="st0" d="M35.7,66.8c-17.2,0-31.1-14-31.1-31.1c0-17.2,14-31.1,31.1-31.1s31.1,14,31.1,31.1S52.8,66.8,35.7,66.8z
			 M35.7,6.2C19.4,6.2,6.2,19.4,6.2,35.7c0,16.2,13.2,29.4,29.4,29.4S65,51.9,65,35.7C65.1,19.4,51.9,6.2,35.7,6.2z"/>
	</g>
</g>
</svg>
