<?xml version="1.0" encoding="utf-8"?>
<!-- Generator: Adobe Illustrator 19.2.1, SVG Export Plug-In . SVG Version: 6.00 Build 0)  -->
<svg version="1.1" id="圖層_3" xmlns="http://www.w3.org/2000/svg" xmlns:xlink="http://www.w3.org/1999/xlink" x="0px" y="0px"
	 viewBox="0 0 71.3 71.3" style="enable-background:new 0 0 71.3 71.3;" xml:space="preserve">
<style type="text/css">
	.st0{fill:#FFFFFF;}
</style>
<g>
	<g>
		<path class="st0" d="M60,18.4H47.4c-0.4,0-0.7-0.3-0.7-0.7V5.4c0-0.3,0.2-0.6,0.4-0.7c0.3-0.1,0.6-0.1,0.8,0.2l12.6,12.3
			c0.2,0.2,0.3,0.5,0.2,0.8C60.6,18.2,60.3,18.4,60,18.4z M48.2,17h10.1L48.2,7.1V17z"/>
	</g>
	<g>
		<path class="st0" d="M58.9,53.4H25.7c-1,0-1.9-0.8-1.9-1.9v-45c0-1,0.9-1.9,1.9-1.9h21.7c0.2,0,0.4,0.1,0.5,0.2l12.6,12.3
			c0.1,0.1,0.2,0.3,0.2,0.5v33.8C60.8,52.5,59.9,53.4,58.9,53.4z M25.7,6.1c-0.2,0-0.4,0.2-0.4,0.4v45c0,0.2,0.2,0.4,0.4,0.4h33.1
			c0.2,0,0.4-0.2,0.4-0.4V18L47.1,6.1H25.7z"/>
	</g>
	<g>
		<path class="st0" d="M54.4,57.8H21.3c-1,0-1.9-0.8-1.9-1.9V11c0-1,0.9-1.9,1.9-1.9h3.3c0.4,0,0.7,0.3,0.7,0.7s-0.3,0.7-0.7,0.7
			h-3.3c-0.2,0-0.4,0.2-0.4,0.4v45c0,0.2,0.2,0.4,0.4,0.4h33.1c0.2,0,0.4-0.2,0.4-0.4v-3.3c0-0.4,0.3-0.7,0.7-0.7
			c0.4,0,0.7,0.3,0.7,0.7v3.3C56.3,57,55.5,57.8,54.4,57.8z"/>
	</g>
	<g>
		<path class="st0" d="M50,62.2H16.9c-1,0-1.9-0.8-1.9-1.9v-45c0-1,0.9-1.9,1.9-1.9h3.3c0.4,0,0.7,0.3,0.7,0.7S20.5,15,20.1,15h-3.3
			c-0.2,0-0.4,0.2-0.4,0.4v45c0,0.2,0.2,0.4,0.4,0.4H50c0.2,0,0.4-0.2,0.4-0.4v-3.3c0-0.4,0.3-0.7,0.7-0.7s0.7,0.3,0.7,0.7v3.3
			C51.9,61.4,51,62.2,50,62.2z"/>
	</g>
	<g>
		<path class="st0" d="M45.6,66.7H12.5c-1,0-1.9-0.8-1.9-1.9v-45c0-1,0.9-1.9,1.9-1.9h3.3c0.4,0,0.7,0.3,0.7,0.7
			c0,0.4-0.3,0.7-0.7,0.7h-3.3c-0.2,0-0.4,0.2-0.4,0.4v45c0,0.2,0.2,0.4,0.4,0.4h33.1c0.2,0,0.4-0.2,0.4-0.4v-3.3
			c0-0.4,0.3-0.7,0.7-0.7c0.4,0,0.7,0.3,0.7,0.7v3.3C47.5,65.8,46.6,66.7,45.6,66.7z"/>
	</g>
	<g>
		<g>
			<path class="st0" d="M55,45.4H29.6c-0.4,0-0.7-0.3-0.7-0.7c0-0.4,0.3-0.7,0.7-0.7H55c0.4,0,0.7,0.3,0.7,0.7
				C55.7,45.1,55.4,45.4,55,45.4z"/>
		</g>
		<g>
			<path class="st0" d="M55,40.2H29.6c-0.4,0-0.7-0.3-0.7-0.7s0.3-0.7,0.7-0.7H55c0.4,0,0.7,0.3,0.7,0.7S55.4,40.2,55,40.2z"/>
		</g>
		<g>
			<path class="st0" d="M55,35H29.6c-0.4,0-0.7-0.3-0.7-0.7c0-0.4,0.3-0.7,0.7-0.7H55c0.4,0,0.7,0.3,0.7,0.7
				C55.7,34.6,55.4,35,55,35z"/>
		</g>
		<g>
			<path class="st0" d="M55,29.7H29.6c-0.4,0-0.7-0.3-0.7-0.7c0-0.4,0.3-0.7,0.7-0.7H55c0.4,0,0.7,0.3,0.7,0.7
				C55.7,29.4,55.4,29.7,55,29.7z"/>
		</g>
		<g>
			<path class="st0" d="M55,24.5H29.6c-0.4,0-0.7-0.3-0.7-0.7c0-0.4,0.3-0.7,0.7-0.7H55c0.4,0,0.7,0.3,0.7,0.7
				C55.7,24.2,55.4,24.5,55,24.5z"/>
		</g>
		<g>
			<path class="st0" d="M44.5,19.3H29.6c-0.4,0-0.7-0.3-0.7-0.7c0-0.4,0.3-0.7,0.7-0.7h14.9c0.4,0,0.7,0.3,0.7,0.7
				C45.2,19,44.9,19.3,44.5,19.3z"/>
		</g>
		<g>
			<path class="st0" d="M43.9,14.1H29.6c-0.4,0-0.7-0.3-0.7-0.7c0-0.4,0.3-0.7,0.7-0.7h14.3c0.4,0,0.7,0.3,0.7,0.7
				C44.6,13.8,44.3,14.1,43.9,14.1z"/>
		</g>
	</g>
</g>
</svg>
