<svg id="圖層_2" data-name="圖層 2" xmlns="http://www.w3.org/2000/svg" viewBox="0 0 503.14 48.82"><defs><style>.cls-1{fill:#297550;}</style></defs><title>name</title><path class="cls-1" d="M208.92,88.23a40.11,40.11,0,0,1-4.76,8.25,48.84,48.84,0,0,0,6.48.51,22.15,22.15,0,0,0-3.95,5.87c-5.57-.66-9.87-2.12-13-4.71-2,2-6,3.69-13.66,4.5h24.59v20.74h-6.07c4.15,1.67,8.45,3.59,11.13,5l-6.58,3.85a93.74,93.74,0,0,0-12.6-6.27l3.24-2.53H180.33l4.6,2.07c-4.2,2.83-10.83,5.46-16,6.93a54.75,54.75,0,0,0-5.46-5.36,58.41,58.41,0,0,0,12.85-3.64h-6.22V102.65h8.85a16.59,16.59,0,0,0-1.77-3H163.48V94.1h15.73V97c8.45-.71,9.71-2.38,9.71-3.9V92.23h-1.82a23.75,23.75,0,0,1-3.39,3.9,42.39,42.39,0,0,0-5.41-3.69,18.49,18.49,0,0,0,6-8.7l6.37,1.47c-0.2.61-.46,1.21-0.71,1.82h12.85l1.06-.3Zm-30.86,3.39H164.6V86.36h13.46v5.26Zm19.12,15.28h-20v1.42h20V106.9Zm-20,6.83h20v-1.42h-20v1.42Zm0,5.46h20v-1.47h-20v1.47Zm18.47-27v1.06c1.72,1.52,4.35,2.48,7.74,3.09l-5-1.87c0.4-.66.91-1.42,1.37-2.28h-4.15Z" transform="translate(-163.43 -83.62)"/><path class="cls-1" d="M221.46,108.47c-1.77-1.37-5.57-3.59-8.1-5.06l4.2-5.31c2.43,1.21,6.32,3.19,8.3,4.45Zm5.11,6.83c-1.82,5.51-3.9,11.13-6.07,16.29l-6.73-3.9a149.07,149.07,0,0,0,6.78-16.39ZM223.94,95c-1.77-1.42-5.67-3.69-8.2-5.26L220,84.43c2.43,1.26,6.43,3.34,8.4,4.65Zm27.47,20.79v9.71c0,3-.4,4.71-2.43,5.67s-4.4,1.06-7.44,1a29.37,29.37,0,0,0-1.47-5.46c-0.66,1.11-1.26,2.12-1.82,3a43.15,43.15,0,0,0-5.72-3.49,37.31,37.31,0,0,0,4.76-8.9l6.48,1.87a55.05,55.05,0,0,1-3.29,6.73c1.32,0.05,2.73.05,3.19,0.05s0.76-.15.76-0.66v-9.51H237V96.93h6.27c0.4-1.16.81-2.43,1.06-3.49h-8.45V101c0,9.11-1,23-7,31.37a30.81,30.81,0,0,0-6.22-3.9c5.67-7.74,6.12-19.33,6.12-27.47V86.86H261v6.58h-12.3l4.15,0.71c-0.61,1-1.26,1.92-1.87,2.78h8.85v18.82h-8.4ZM253,102.09h-9.56v1.82H253v-1.82Zm-9.56,8.5H253v-1.87h-9.56v1.87Zm14.62,6c1.47,3,3.49,7.18,4.4,9.71l-6.78,2.88a101.76,101.76,0,0,0-4-10.17Z" transform="translate(-163.43 -83.62)"/><path class="cls-1" d="M310.2,85.65V132.2h-8v-2.73H273.77v2.73h-7.64V85.65H310.2Zm-8,37V93.19H273.77v29.45h28.38Z" transform="translate(-163.43 -83.62)"/><path class="cls-1" d="M360.29,100.22a60.09,60.09,0,0,1-6,18.62,27.8,27.8,0,0,0,9,7.08,26.32,26.32,0,0,0-5,6.07,32.6,32.6,0,0,1-8.3-7,32.68,32.68,0,0,1-9.21,7.49,36.84,36.84,0,0,0-4.81-6,26.87,26.87,0,0,0,9.77-7.64,54.51,54.51,0,0,1-4.15-9.36,26,26,0,0,1-1.72,2.23,40.43,40.43,0,0,0-3.95-5.21v25.8h-7.29v-12.5c-7.39,2.53-9.16,3.54-10.42,4.55a24.31,24.31,0,0,0-2.68-6.73,4,4,0,0,0,1.87-3.74V89.49h7.24v24.29l4-1.11V84.89h7.29v18.87c3.54-4.86,5.57-12.09,6.58-19.68l7.59,1.21a79.51,79.51,0,0,1-1.67,8h14.42v6.93h-2.53Zm-14,0c-0.2.56-.46,1.16-0.66,1.72a51.36,51.36,0,0,0,4,10.17A48.36,48.36,0,0,0,353,100.22h-6.73Z" transform="translate(-163.43 -83.62)"/><path class="cls-1" d="M412.9,92.38h-7.54a25.3,25.3,0,0,1,3.09,2.78l-3.44,3h6.63v9.16h-6.37v9.82H380.88v1.62H408V132.3h-7.34v-1.21H380.88v1.21h-7.49V107.35H367V98.2h2.63a54.61,54.61,0,0,0-4.15-4.2,28.26,28.26,0,0,0,7.19-10.37l6.48,1.92-0.61,1.37h10V91a20.22,20.22,0,0,0,5.11-7.39l6.68,1.77c-0.2.51-.46,1-0.66,1.52H412.9v5.46Zm-37.44.05a46.45,46.45,0,0,1-4.4,5.77h8.8a33.61,33.61,0,0,0-4-4l2-1.77h-2.33Zm28.69,11.18H374v1.57h30.1v-1.57Zm-6.07,6.73h-17.2V112h17.2v-1.67ZM380.88,124v1.72h19.78V124H380.88Zm9.87-29.7c-0.86-.66-1.72-1.37-2.53-1.92H382.7A19.12,19.12,0,0,1,385,94.65l-3.79,3.54H386c-0.4-.91-0.81-1.82-1.26-2.63Zm11.69,3.85a47.91,47.91,0,0,0-4.55-3.95l2.23-1.87h-3.74a26.7,26.7,0,0,1-3.49,3.9c-0.2-.2-0.46-0.46-0.76-0.71a21.33,21.33,0,0,1,1.32,2.63h9Z" transform="translate(-163.43 -83.62)"/><path class="cls-1" d="M434.2,122.28c-5.72,2-12,4-17.05,5.62l-1.62-7.49c1.67-.41,3.64-1,5.82-1.57V108h-4.76v-6.73h4.76V93.54h-5.21V86.76h17.35v6.78h-5.16v7.74h4.25V108h-4.25v8.75c1.52-.51,3.09-1,4.6-1.47Zm30,1.72v6.63H431.57V124h13.2v-3.64h-9.87v-6.58h9.87v-3.44h-9.71V86.15h27v24.18h-9.71v3.44h10.17v6.58H452.31V124h11.84ZM441.69,95.36h3.79v-3h-3.79v3Zm0,8.8h3.79v-3.09h-3.79v3.09ZM455,92.33H451.6v3H455v-3Zm0,8.75H451.6v3.09H455v-3.09Z" transform="translate(-163.43 -83.62)"/><path class="cls-1" d="M512.47,88.23a40.09,40.09,0,0,1-4.76,8.25,48.84,48.84,0,0,0,6.48.51,22.15,22.15,0,0,0-3.95,5.87c-5.57-.66-9.87-2.12-13-4.71-2,2-6,3.69-13.66,4.5h24.59v20.74h-6.07c4.15,1.67,8.45,3.59,11.13,5l-6.58,3.85a93.73,93.73,0,0,0-12.6-6.27l3.24-2.53H483.88l4.6,2.07c-4.2,2.83-10.83,5.46-16,6.93A54.8,54.8,0,0,0,467,127a58.41,58.41,0,0,0,12.85-3.64h-6.22V102.65h8.85a16.57,16.57,0,0,0-1.77-3H467V94.1h15.73V97c8.45-.71,9.71-2.38,9.71-3.9V92.23h-1.82a23.69,23.69,0,0,1-3.39,3.9,42.44,42.44,0,0,0-5.41-3.69,18.49,18.49,0,0,0,6-8.7l6.37,1.47c-0.2.61-.45,1.21-0.71,1.82h12.85l1.06-.3ZM481.6,91.62H468.15V86.36H481.6v5.26Zm19.12,15.28h-20v1.42h20V106.9Zm-20,6.83h20v-1.42h-20v1.42Zm0,5.46h20v-1.47h-20v1.47Zm18.47-27v1.06c1.72,1.52,4.35,2.48,7.74,3.09l-5-1.87c0.4-.66.91-1.42,1.37-2.28h-4.15Z" transform="translate(-163.43 -83.62)"/><path class="cls-1" d="M536.24,98.15H517.47V92.43H525c-0.71-1.87-1.72-4.1-2.58-5.87l5.16-2.68a56.24,56.24,0,0,1,3.29,6.93L528,92.43h8.2v5.72Zm-16.75,8.8v-5.46h15v5.46h-15Zm0,1.52h15.18v5.46H519.5v-5.46Zm40.83-21.91c-0.61,14.52-.46,37.29.81,37.84,0.25,0.1.46-3.29,0.61-6.32a36.87,36.87,0,0,0,3.69,6.12c-0.91,7.59-4,9.16-7.59,7.59-4.81-2.18-4.91-20.19-4.86-38.25h-4.91v12.55H552v6.78h-3.9V132.2h-6.83V112.87h-5v-6.78h5V93.54H537v-7h23.32Z" transform="translate(-163.43 -83.62)"/><path class="cls-1" d="M595.54,115.85v8.8c0,3.44-.66,5.31-3.24,6.43s-5.51,1.16-9.26,1.16a26.84,26.84,0,0,0-2.68-7.18c2.38,0.15,5.67.15,6.58,0.15s1.11-.2,1.11-0.76v-8c-4.71.46-7.74,0.76-9.87,1l6.73,2.43a55,55,0,0,1-11.08,10.42,51.27,51.27,0,0,0-6.43-4.91,31.37,31.37,0,0,0,9.66-7.79,20.81,20.81,0,0,0-3.59.86,61.11,61.11,0,0,0-2.12-6.63c2.23-.3,3.95-1.06,7.08-2.58a62,62,0,0,0,6.27-3.29c-6.37.51-8,.76-9.31,1.26-0.35-1.37-1.37-4.81-2.13-6.68a13.79,13.79,0,0,0,4.4-1.77,55.47,55.47,0,0,0,6.12-3.64c-4.1.61-8.25,1.11-12.19,1.52a23.7,23.7,0,0,0-2.07-6.22c11.89-1.26,24.59-3.64,32.63-6.83l5.46,5.82a99.21,99.21,0,0,1-14.42,4L595.54,95a72.74,72.74,0,0,1-7.44,4.91l6.58-.25c1.82-1.37,3.59-2.73,5.21-4.2l5.41,4.91a95.85,95.85,0,0,1-14.93,9.56l10.27-.71c-0.86-1-1.67-2-2.43-2.83l6.07-3.09A118,118,0,0,1,614,114.84l-6.27,3.85A44.26,44.26,0,0,0,605.2,115Zm7.74,0.56c3.74,2.43,8.75,6.17,11.23,9l-6.58,4.35c-2.12-2.68-6.93-6.68-10.73-9.41Z" transform="translate(-163.43 -83.62)"/><path class="cls-1" d="M659.33,124.86c0.81,0,1-1,1.11-7.08a19.2,19.2,0,0,0,6.12,2.73c-0.61,8.4-2.23,10.78-6.48,10.78H656.8c-5.21,0-6.37-2.12-6.37-8.3V109.23l-1.77.25c-0.4,10.27-1.67,18.16-9.66,23a19,19,0,0,0-4.45-5.82c6.07-3.44,6.88-8.8,7.18-16.19a13,13,0,0,0-2.53.76,70.62,70.62,0,0,0-2.48-7c1.37-.41,2.28-1.52,3.59-3.54a36.69,36.69,0,0,0,2.28-4.1h-5.21V95.41A91.86,91.86,0,0,1,631.3,105l3.59-1.47a40.1,40.1,0,0,1,3.54,10.27L633.23,116a14,14,0,0,0-.41-2.23c-9.46,1.82-11.33,2.43-12.5,3.09a49.54,49.54,0,0,0-2.23-6.48c1.47-.4,2.48-1.47,4.1-3.39,0.51-.56,1.37-1.67,2.38-3.09-2.93.35-3.95,0.66-4.65,1a61,61,0,0,0-2.23-6.37c1.06-.3,1.87-1.21,2.83-2.73a52.39,52.39,0,0,0,5.41-12.14l6.53,2.73a66.85,66.85,0,0,1-6.48,12l2.18-.15A68.89,68.89,0,0,0,632,90.46l5.36,3.39V89.7h8.2a61.88,61.88,0,0,0,2-5.87l8.09,2c-0.51,1.32-1.06,2.58-1.62,3.9H665.4v6.83H650.68c-1.26,2.33-2.58,4.55-3.9,6.58l8.35-.71c-0.61-1.06-1.21-2.13-1.82-3.09l5.92-2.63c2.63,3.95,5.67,9.16,6.78,12.8l-6.43,3a29.33,29.33,0,0,0-1.47-4.1l-0.81.1v14.47c0,1.72.05,1.92,0.76,1.92h1.26ZM625,118.94a53.49,53.49,0,0,1-2,12.5,32.2,32.2,0,0,0-5.36-1.92c1.11-2.88,1.57-7.39,1.77-11.48Zm5.36-1.42a91.63,91.63,0,0,1,1.32,10.32l-5.36,1.42a89.21,89.21,0,0,0-1-10.42Zm1-8.9c-0.3-.86-0.66-1.67-1-2.48-0.81,1-1.57,2-2.43,3Zm4.3,7.29A65.67,65.67,0,0,1,638,123.7l-5,1.87a67.74,67.74,0,0,0-2.13-8Z" transform="translate(-163.43 -83.62)"/><path class="cls-1" d="M277.84,109a3.62,3.62,0,0,0,2.06,1.16l0.06,0c0.52,0.11.52,0.11,0.52,0.64q0,2,0,4.09a0.58,0.58,0,0,0,.68.69c1.62,0,3.24,0,4.86.06a0.7,0.7,0,0,0,.71-0.62c0-.7,0-1.4,0-2.13h-1.81l3.2-3.2,3.12,3.19h-1.79c0,0.32,0,.61,0,0.9,0,0.68,0,1.36.06,2a2.46,2.46,0,0,1-2.46,2.48c-2.27,0-4.55,0-6.82,0a2.49,2.49,0,0,1-2.4-2.4q0-3.25,0-6.5V109Z" transform="translate(-163.43 -83.62)"/><path class="cls-1" d="M298.49,107.1a3.59,3.59,0,0,0-2.58-1.21v-0.36q0-2.11,0-4.22a0.68,0.68,0,0,0-.79-0.81c-1.58,0-3.16,0-4.74-.06a0.69,0.69,0,0,0-.78.68c0,0.68,0,1.36,0,2.07h1.81l-3.19,3.19-3.13-3.17h1.76c0-.6,0-1.17,0-1.74a4,4,0,0,1,.44-2.64,2.29,2.29,0,0,1,1.94-1h6.85a2.49,2.49,0,0,1,2.42,2.4q0,3.23,0,6.46v0.44Z" transform="translate(-163.43 -83.62)"/><path class="cls-1" d="M286.4,108.1l-3.16,3.12v-1.77c-0.57,0-1.11,0-1.66,0a4.11,4.11,0,0,1-2.71-.42,2.27,2.27,0,0,1-1-1.93q0-3.44,0-6.89a2.54,2.54,0,0,1,2.38-2.41c2.15,0,4.31,0,6.46,0h0.43a3.62,3.62,0,0,0-1.18,2.57h-4.6a0.68,0.68,0,0,0-.79.78c0,1.58,0,3.16-.05,4.74a0.7,0.7,0,0,0,.72.8c0.66,0,1.32,0,2,0v-1.79Z" transform="translate(-163.43 -83.62)"/><path class="cls-1" d="M293.11,109.42v1.76L290,108l3.13-3.07v1.71h1.68a4.14,4.14,0,0,1,2.68.43,2.27,2.27,0,0,1,1,1.93c0,2.31,0,4.61,0,6.92a2.52,2.52,0,0,1-2.37,2.39c-2.17,0-4.33,0-6.5,0H289.2a3.6,3.6,0,0,0,1.2-2.58H295a0.67,0.67,0,0,0,.77-0.77c0-1.59,0-3.18.06-4.77a0.73,0.73,0,0,0-.75-0.78C294.45,109.4,293.8,109.42,293.11,109.42Z" transform="translate(-163.43 -83.62)"/><path class="cls-1" d="M519.5,125.27a2.68,2.68,0,0,0,1.52.86l0,0c0.38,0.08.38,0.08,0.38,0.47q0,1.51,0,3a0.43,0.43,0,0,0,.5.51c1.2,0,2.4,0,3.6,0a0.52,0.52,0,0,0,.52-0.46c0-.52,0-1,0-1.58h-1.34l2.36-2.37,2.31,2.36h-1.33c0,0.24,0,.45,0,0.67,0,0.5,0,1,0,1.51a1.82,1.82,0,0,1-1.82,1.83c-1.68,0-3.36,0-5,0a1.84,1.84,0,0,1-1.77-1.77q0-2.4,0-4.81v-0.3Z" transform="translate(-163.43 -83.62)"/><path class="cls-1" d="M534.77,123.85a2.65,2.65,0,0,0-1.91-.89v-0.26q0-1.56,0-3.12a0.5,0.5,0,0,0-.58-0.6c-1.17,0-2.34,0-3.5,0a0.51,0.51,0,0,0-.58.5c0,0.5,0,1,0,1.53h1.34l-2.36,2.36L524.85,121h1.3c0-.45,0-0.87,0-1.29a2.94,2.94,0,0,1,.32-2,1.69,1.69,0,0,1,1.43-.76H533a1.84,1.84,0,0,1,1.79,1.77q0,2.39,0,4.78v0.32Z" transform="translate(-163.43 -83.62)"/><path class="cls-1" d="M525.83,124.59l-2.34,2.31v-1.31h-1.23a3,3,0,0,1-2-.31,1.68,1.68,0,0,1-.76-1.43q0-2.55,0-5.1a1.88,1.88,0,0,1,1.76-1.78c1.59,0,3.19,0,4.78,0h0.32a2.68,2.68,0,0,0-.88,1.9h-3.41a0.5,0.5,0,0,0-.59.57c0,1.17,0,2.34,0,3.5a0.52,0.52,0,0,0,.53.59c0.49,0,1,0,1.49,0v-1.32Z" transform="translate(-163.43 -83.62)"/><path class="cls-1" d="M530.79,125.57v1.3l-2.33-2.33,2.32-2.27v1.27H532a3.06,3.06,0,0,1,2,.32,1.68,1.68,0,0,1,.77,1.42c0,1.71,0,3.41,0,5.12a1.86,1.86,0,0,1-1.75,1.77c-1.6,0-3.2,0-4.81,0H527.9a2.67,2.67,0,0,0,.89-1.91h3.42a0.5,0.5,0,0,0,.57-0.57c0-1.18,0-2.35,0-3.53a0.54,0.54,0,0,0-.56-0.58C531.78,125.55,531.3,125.57,530.79,125.57Z" transform="translate(-163.43 -83.62)"/></svg>