<?xml version="1.0" encoding="utf-8"?>
<!-- Generator: Adobe Illustrator 19.2.1, SVG Export Plug-In . SVG Version: 6.00 Build 0)  -->
<svg version="1.1" id="圖層_1" xmlns="http://www.w3.org/2000/svg" xmlns:xlink="http://www.w3.org/1999/xlink" x="0px" y="0px"
	 viewBox="0 0 233.7 207" style="enable-background:new 0 0 233.7 207;" xml:space="preserve">
<style type="text/css">
	.st0{fill:#297550;}
	.st1{fill:#FFFFFF;}
	.st2{font-family:'NotoSansCJKtc-Regular-B5pc-H';}
	.st3{font-size:19.2623px;}
	.st4{font-size:14.4467px;}
	.st5{fill:none;stroke:#297550;stroke-width:0.8965;stroke-miterlimit:10;}
</style>
<title>NEWS</title>
<g>
	<g>
		<g>
			<g>
				<path class="st0" d="M89,125.8c-6.3-4.8-3.3-11-3.2-11.3c0.2-0.4,0-1-0.4-1.2c-0.4-0.2-1,0-1.2,0.4c0,0.1-3.8,7.8,3.7,13.5
					c0.2,0.1,0.3,0.2,0.5,0.2c0.3,0,0.5-0.1,0.7-0.4C89.5,126.7,89.4,126.1,89,125.8z"/>
				<path class="st0" d="M85.9,113.4l-19.5-4c0.3,11.3,8.6,30.7,8.6,30.7l14.7-13.2L85.9,113.4z"/>
				<path class="st0" d="M88.5,127.4c-0.2,0-0.4-0.1-0.5-0.2c-7.5-5.7-3.7-13.4-3.7-13.5c0.2-0.4,0.7-0.6,1.2-0.4
					c0.4,0.2,0.6,0.7,0.4,1.2c-0.1,0.3-3.1,6.5,3.2,11.3c0.4,0.3,0.5,0.8,0.2,1.2C89,127.3,88.8,127.4,88.5,127.4z"/>
			</g>
			<path class="st1" d="M138.2,119L138.2,119L109,138.1l8.2-17.3h0c-24-3.2-42.5-23.7-42.5-48.6c0-27.1,22-49,49-49
				c27.1,0,49,22,49,49C172.8,94.2,158.3,112.9,138.2,119"/>
			<path class="st0" d="M18.6,153.5l20.4,30.8l14.1-3.9l-14-16.8l1.2-11.4c0,0,0,0-0.1,0c-3.2,0-6.3,0.2-9.2,0.6
				c-2.1,0.3-4,0.6-5.8,1.1l-0.6-2.1L18.6,153.5z"/>
			<path class="st1" d="M24.7,151.8l0.6,2.1c1.8-0.5,3.7-0.9,5.8-1.1c2.9-0.4,6-0.6,9.2-0.6c0,0,0,0,0.1,0c17-0.1,37.7,4.1,47.5,6.3
				c-6.5-4.3-13.9-17.3-18.4-33.7c-4.5-16.2-5-31-1.8-38.1c-9.8,9.4-33.9,31.2-51,36L24.7,151.8z"/>
			<path class="st0" d="M92.2,161.6c-3.8,0-8.2-3.3-12.5-9.6c-4.6-6.8-8.8-16.3-11.7-26.8c-5.4-19.5-6-41.7,3.5-44.3
				c4.2-1.2,9.3,2.1,14.2,9.4c4.6,6.8,8.8,16.3,11.7,26.8c5.4,19.5,6,41.7-3.5,44.3C93.3,161.5,92.7,161.6,92.2,161.6 M70.9,124.4
				c2.8,10.2,6.9,19.4,11.3,25.9c4,5.9,8.1,8.9,10.9,8.1c5.6-1.6,7.5-18.6,1.4-40.6c-2.8-10.2-6.9-19.4-11.3-25.9
				c-4-5.9-8.1-8.9-10.9-8.1C66.7,85.4,64.8,102.4,70.9,124.4"/>
			
				<rect x="2.6" y="130.9" transform="matrix(0.9634 -0.2682 0.2682 0.9634 -37.5606 7.4949)" class="st0" width="12.2" height="20.7"/>
			<path class="st0" d="M23.5,124.9c-0.3,0-0.6-0.2-0.8-0.5c-0.2-0.4-0.1-1,0.4-1.2c0.2-0.1,22.4-11.6,35.8-24.6
				c0.4-0.3,0.9-0.3,1.2,0c0.3,0.4,0.3,0.9,0,1.2c-13.6,13.2-36,24.8-36.2,24.9C23.7,124.9,23.6,124.9,23.5,124.9"/>
			<path class="st0" d="M27.6,151.7c-0.4,0-0.8-0.3-0.9-0.7l-3.3-13.8c-0.1-0.5,0.2-0.9,0.6-1.1c0.5-0.1,0.9,0.2,1.1,0.6l3.2,13
				c2.5-0.4,10-1.5,21.3-0.6c0.5,0,0.8,0.5,0.8,1c0,0.5-0.5,0.8-1,0.8c-13.3-1.1-21.5,0.7-21.6,0.7
				C27.8,151.7,27.7,151.7,27.6,151.7"/>
		</g>
		<text transform="matrix(1 0 0 1 85.6261 73.3426)"><tspan x="0" y="0" class="st0 st2 st3">最新消息</tspan><tspan x="18.4" y="17.3" class="st0 st2 st4">NEWS</tspan></text>
	</g>
	<g>
		<line class="st5" x1="217.4" y1="3.3" x2="217.4" y2="202.9"/>
		
			<image style="overflow:visible;opacity:0.12;" width="15" height="207" xlink:href="D23A0D81.png"  transform="matrix(1 0 0 1 218 0)">
		</image>
	</g>
</g>
</svg>
