<?xml version="1.0" encoding="utf-8"?>
<!-- Generator: Adobe Illustrator 26.0.0, SVG Export Plug-In . SVG Version: 6.00 Build 0)  -->
<svg version="1.1" id="圖層_1" xmlns="http://www.w3.org/2000/svg" xmlns:xlink="http://www.w3.org/1999/xlink" x="0px" y="0px"
	 viewBox="0 0 107.8 98.3" style="enable-background:new 0 0 107.8 98.3;" xml:space="preserve">
<style type="text/css">
	.st0{fill:#FFCE00;}
</style>
<g>
	<path class="st0" d="M84.6,44c-0.2,0.2-0.4,0.3-0.7,0.3c-0.2,0-0.4-0.1-0.5-0.2c-4.1-2.9-5.6-8.2-3.5-12.8c0.2-0.4,0.7-0.6,1.1-0.4
		c0.4,0.2,0.6,0.7,0.4,1.1l0,0c-1.8,3.8-0.5,8.4,3,10.7C84.7,43.1,84.8,43.6,84.6,44C84.6,44,84.6,44,84.6,44 M81.4,31L63,27.2
		c0.2,10.7,8.1,29.1,8.1,29.1L85,43.8L81.4,31z M84.5,44c0.3-0.4,0.2-0.9-0.2-1.2c0,0,0,0,0,0c-3.5-2.4-4.8-6.9-3-10.7
		c0.2-0.4,0-0.9-0.4-1.1c-0.4-0.2-0.9,0-1.1,0.4c-2.1,4.6-0.6,9.9,3.5,12.8c0.1,0.1,0.3,0.2,0.5,0.2C84.2,44.3,84.4,44.2,84.5,44
		 M17.7,69.1L37,98.3l13.3-3.7L37.1,78.6l1.1-10.8h-0.1c-2.9,0-5.8,0.2-8.7,0.6c-1.8,0.2-3.7,0.6-5.5,1.1l-0.6-2L17.7,69.1z
		 M23.4,67.5l0.6,2c1.8-0.5,3.6-0.9,5.5-1.1c2.9-0.4,5.8-0.6,8.7-0.6h0.1c16.1-0.1,35.7,3.9,45,6c-6.2-4.1-13.1-16.4-17.5-32
		c-4.3-15.3-4.7-29.4-1.7-36.1c-9.3,9-32.1,29.6-48.4,34.1L23.4,67.5z M87.4,76.7c0.6,0,1.1-0.1,1.6-0.2c9.1-2.5,8.5-23.5,3.4-42
		c-2.8-10-6.7-19-11.1-25.4c-4.7-6.9-9.5-10-13.5-8.9c-9.1,2.5-8.5,23.5-3.3,42c2.8,10,6.7,19,11.1,25.4
		C79.6,73.5,83.7,76.7,87.4,76.7 M67.2,41.5c-5.8-20.8-4-37,1.3-38.5c2.6-0.7,6.5,2.2,10.3,7.7c4.2,6.2,8,14.9,10.7,24.5
		c5.8,20.8,4,37-1.3,38.4c-2.6,0.7-6.5-2.2-10.3-7.7C73.7,59.9,69.9,51.1,67.2,41.5 M11.1,46.5L0,49.5l5.3,18.9l11.1-3.1L11.1,46.5z
		 M22.2,42c0.1,0,0.3,0,0.4-0.1c0.2-0.1,21.5-11.1,34.4-23.6c0.3-0.3,0.3-0.9,0-1.2c-0.3-0.3-0.9-0.3-1.2,0
		C43.1,29.4,22.1,40.3,21.9,40.4c-0.4,0.2-0.5,0.7-0.3,1.1C21.7,41.8,22,42,22.2,42 M26.2,67.4h0.2c0.1,0,7.9-1.7,20.5-0.7
		c0.5,0,0.9-0.3,0.9-0.8S47.5,65,47,65l0,0c-6.7-0.7-13.5-0.5-20.2,0.6l-3-12.3c-0.1-0.4-0.6-0.7-1-0.6c-0.4,0.1-0.7,0.6-0.6,1l0,0
		l3.2,13.1C25.4,67.1,25.8,67.4,26.2,67.4"/>
</g>
</svg>
