<svg xmlns="http://www.w3.org/2000/svg" width="50.13" height="49.85" viewBox="0 0 50.13 49.85">
  <g>
    <path d="M0,27.26a8.87,8.87,0,0,0,5,2.81s.1.05.15.06c1.26.26,1.26.26,1.26,1.55,0,3.31,0,6.62,0,9.93,0,1.21.45,1.65,1.65,1.66,3.94,0,7.88.06,11.81.15a1.71,1.71,0,0,0,1.72-1.51c.09-1.69,0-3.39,0-5.17h-4.4L25,29l7.58,7.73H28.2c0,.78,0,1.48,0,2.18,0,1.65.12,3.3.15,5a6,6,0,0,1-6,6c-5.52-.08-11,0-16.55,0A6.05,6.05,0,0,1,0,44V27.26Z" style="fill: #99c349"/>
    <path d="M50.12,22.59a8.72,8.72,0,0,0-6.27-2.93V8.54c0-1.4-.55-1.95-1.92-2-3.83,0-7.66-.05-11.49-.14a1.68,1.68,0,0,0-1.89,1.65c-.12,1.64,0,3.3,0,5h4.39l-7.74,7.73-7.59-7.7h4.27c0-1.47,0-2.84,0-4.22-.05-2.21-.37-4.46,1.06-6.42A5.58,5.58,0,0,1,27.61,0H44.24a6,6,0,0,1,5.88,5.82V22.59Z" style="fill: #99c349"/>
    <path d="M20.79,25l-7.68,7.57V28.28c-1.38,0-2.7,0-4,0-2.25.06-4.56.42-6.57-1A5.52,5.52,0,0,1,0,22.57V5.86C0,3.55,2.23-.06,5.79,0,11,.08,16.24,0,21.48,0h1a8.8,8.8,0,0,0-2.87,6.23c-.29,0-.57,0-.84,0H8.48c-1.35,0-1.91.57-1.93,1.88,0,3.84-.08,7.67-.12,11.5a1.7,1.7,0,0,0,1.75,1.95c1.6.05,3.2,0,4.88,0V17.29c2.58,2.57,5.14,5.14,7.73,7.73" style="fill: #99c349"/>
    <path d="M37.05,28.22v4.27l-7.63-7.65L37,17.39v4.15c1.42,0,2.74,0,4.07,0,2.23,0,4.51-.4,6.51,1a5.51,5.51,0,0,1,2.52,4.67c0,5.6,0,11.2,0,16.8,0,2.31-2.24,5.85-5.76,5.8-5.25-.08-10.51,0-15.77,0h-1a8.79,8.79,0,0,0,2.92-6.27H41.7a1.63,1.63,0,0,0,1.87-1.86c0-3.86,0-7.72.15-11.57a1.78,1.78,0,0,0-1.83-1.9c-1.58-.05-3.15,0-4.84,0" style="fill: #99c349"/>
    <path d="M0,27.26a8.87,8.87,0,0,0,5,2.81s.1.05.15.06c1.26.26,1.26.26,1.26,1.55,0,3.31,0,6.62,0,9.93,0,1.21.45,1.65,1.65,1.66,3.94,0,7.88.06,11.81.15a1.71,1.71,0,0,0,1.72-1.51c.09-1.69,0-3.39,0-5.17h-4.4L25,29l7.58,7.73H28.2c0,.78,0,1.48,0,2.18,0,1.65.12,3.3.15,5a6,6,0,0,1-6,6c-5.52-.08-11,0-16.55,0A6.05,6.05,0,0,1,0,44V27.26Z" style="fill: #99c349"/>
    <path d="M50.12,22.59a8.72,8.72,0,0,0-6.27-2.93V8.54c0-1.4-.55-1.95-1.92-2-3.83,0-7.66-.05-11.49-.14a1.68,1.68,0,0,0-1.89,1.65c-.12,1.64,0,3.3,0,5h4.39l-7.74,7.73-7.59-7.7h4.27c0-1.47,0-2.84,0-4.22-.05-2.21-.37-4.46,1.06-6.42A5.58,5.58,0,0,1,27.61,0H44.24a6,6,0,0,1,5.88,5.82V22.59Z" style="fill: #99c349"/>
    <path d="M20.79,25l-7.68,7.57V28.28c-1.38,0-2.7,0-4,0-2.25.06-4.56.42-6.57-1A5.52,5.52,0,0,1,0,22.57V5.86C0,3.55,2.23-.06,5.79,0,11,.08,16.24,0,21.48,0h1a8.8,8.8,0,0,0-2.87,6.23c-.29,0-.57,0-.84,0H8.48c-1.35,0-1.91.57-1.93,1.88,0,3.84-.08,7.67-.12,11.5a1.7,1.7,0,0,0,1.75,1.95c1.6.05,3.2,0,4.88,0V17.29c2.58,2.57,5.14,5.14,7.73,7.73" style="fill: #99c349"/>
    <path d="M37.05,28.22v4.27l-7.63-7.65L37,17.39v4.15c1.42,0,2.74,0,4.07,0,2.23,0,4.51-.4,6.51,1a5.51,5.51,0,0,1,2.52,4.67c0,5.6,0,11.2,0,16.8,0,2.31-2.24,5.85-5.76,5.8-5.25-.08-10.51,0-15.77,0h-1a8.79,8.79,0,0,0,2.92-6.27H41.7a1.63,1.63,0,0,0,1.87-1.86c0-3.86,0-7.72.15-11.57a1.78,1.78,0,0,0-1.83-1.9c-1.58-.05-3.15,0-4.84,0" style="fill: #99c349"/>
  </g>
</svg>
